<svg width="30" height="30" viewBox="0 0 30 30" fill="none" xmlns="http://www.w3.org/2000/svg">
<path d="M15 1.25C7.40495 1.25 1.25 7.40495 1.25 15C1.25 22.5951 7.40495 28.75 15 28.75C22.5951 28.75 28.75 22.5951 28.75 15C28.75 7.40495 22.5951 1.25 15 1.25ZM15 27.4407C8.125 27.4407 2.55934 21.8751 2.55934 15C2.55934 8.12489 8.12489 2.55934 15 2.55934C21.8751 2.55934 27.4407 8.12489 27.4407 15C27.4407 21.8751 21.8751 27.4407 15 27.4407Z" fill="#808080"/>
<path d="M20.5657 14.3451H15.655V9.43435C15.655 9.07415 15.3604 8.77951 15.0002 8.77951C14.64 8.77951 14.3453 9.07415 14.3453 9.43435V14.3451H9.43462C9.07443 14.3451 8.77979 14.6397 8.77979 14.9999C8.77979 15.3601 9.07443 15.6547 9.43462 15.6547H14.3453V20.5654C14.3453 20.9256 14.64 21.2203 15.0002 21.2203C15.3604 21.2203 15.655 20.9256 15.655 20.5654V15.6547H20.5657C20.9259 15.6547 21.2206 15.3601 21.2206 14.9999C21.2203 14.6397 20.9257 14.3451 20.5657 14.3451Z" fill="#808080"/>
</svg>
