<svg width="47" height="46" viewBox="0 0 47 46" fill="none" xmlns="http://www.w3.org/2000/svg">
<g clip-path="url(#clip0_2689_8429)">
<path d="M27.8398 32.8745L32.736 37.6335L39.5496 30.873" stroke="black" stroke-miterlimit="10"/>
<path d="M28.2507 40.7515L27.0523 45.0122H19.5797L18.3728 40.9233L15.5566 39.8237L11.9444 42.186L6.37202 37.4615L8.0326 33.5444L6.42337 30.8299L2.11783 30.2544L0.970825 23.2277L4.64295 21.1489L5.27637 18.0908L2.34894 14.8609L5.96971 8.40973L10.0441 9.32887L12.5778 7.3102L12.3467 2.8777L19.1774 0.506836L21.6511 4.02878L24.8696 4.08891L27.4546 0.627097L34.2254 3.04951L34.1141 7.25866L36.5279 9.389L40.6623 8.40973L44.2231 14.5774L41.4669 18.0392L41.8692 20.9169L45.6612 22.9356L44.6255 29.7991L42.1945 30.6151" stroke="black" stroke-miterlimit="10"/>
<path d="M24.4587 33.1319C24.4584 31.721 24.7868 30.3295 25.4175 29.0685C26.0482 27.8076 26.9639 26.712 28.0914 25.8691C29.2189 25.0263 30.5272 24.4596 31.9117 24.2143C33.2962 23.9689 34.7187 24.0516 36.0657 24.4559C36.1519 23.8556 36.1948 23.2499 36.1941 22.6434C36.1837 20.0818 35.4014 17.5832 33.9499 15.476C32.4985 13.3688 30.4459 11.7515 28.0617 10.8365C25.6775 9.92155 23.0732 9.75176 20.5911 10.3494C18.109 10.9471 15.8651 12.2843 14.1541 14.1854C12.4432 16.0864 11.3454 18.4623 11.0047 21.0011C10.6641 23.5398 11.0967 26.1226 12.2457 28.41C13.3947 30.6975 15.2063 32.5826 17.4425 33.8178C19.6787 35.0531 22.235 35.5805 24.7754 35.331C24.582 34.6134 24.4757 33.8751 24.4587 33.1319V33.1319Z" stroke="black" stroke-miterlimit="10"/>
<path d="M45.8922 42.8991L41.056 38.0371C42.2676 36.149 42.736 33.8761 42.3701 31.6606C42.0042 29.445 40.8301 27.4453 39.0762 26.0505C37.3224 24.6557 35.1142 23.9654 32.8813 24.1141C30.6484 24.2628 28.5505 25.2397 26.9956 26.8548C25.4408 28.4699 24.5402 30.6077 24.4692 32.8523C24.3981 35.097 25.1616 37.2878 26.6111 38.9988C28.0607 40.7097 30.0926 41.8183 32.3116 42.109C34.5306 42.3996 36.7779 41.8514 38.6164 40.5711L43.4099 45.3902L45.8922 42.8991Z" stroke="black" stroke-miterlimit="10"/>
<path d="M38.6335 40.5712L39.2498 40.0128C39.7299 39.5782 40.1789 39.1104 40.5937 38.6126L41.073 38.0371" stroke="black" stroke-miterlimit="10"/>
<path d="M23.8081 26.8527C26.1907 26.8527 28.1222 24.9143 28.1222 22.5233C28.1222 20.1322 26.1907 18.1938 23.8081 18.1938C21.4255 18.1938 19.494 20.1322 19.494 22.5233C19.494 24.9143 21.4255 26.8527 23.8081 26.8527Z" stroke="black" stroke-miterlimit="10"/>
</g>
<defs>
<clipPath id="clip0_2689_8429">
<rect width="46" height="46" fill="white" transform="translate(0.5)"/>
</clipPath>
</defs>
</svg>
