<svg width="40" height="41" viewBox="0 0 40 41" fill="none" xmlns="http://www.w3.org/2000/svg">
<path d="M37.3914 12.7461H13.6964C13.1892 12.7461 12.7544 12.3113 12.7544 11.8041C12.7544 11.2968 13.1892 10.8621 13.6964 10.8621H37.3914C37.8986 10.8621 38.3334 11.2968 38.3334 11.8041C38.3334 12.3113 37.8986 12.7461 37.3914 12.7461Z" fill="#101010"/>
<path d="M6.30435 12.7461H2.60874C2.1015 12.7461 1.66672 12.3113 1.66672 11.8041C1.66672 11.2968 2.1015 10.8621 2.60874 10.8621H6.30435C6.81159 10.8621 7.24636 11.2968 7.24636 11.8041C7.24636 12.3113 6.88405 12.7461 6.30435 12.7461Z" fill="black"/>
<path d="M37.3914 21.6594H31.1596C30.6523 21.6594 30.2175 21.2246 30.2175 20.7174C30.2175 20.2102 30.6523 19.7754 31.1596 19.7754H37.3914C37.8986 19.7754 38.3334 20.2102 38.3334 20.7174C38.3334 21.2246 37.8986 21.6594 37.3914 21.6594Z" fill="black"/>
<path d="M23.7683 21.6594H2.60915C2.10191 21.6594 1.66713 21.2246 1.66713 20.7174C1.66713 20.2102 2.10191 19.7754 2.60915 19.7754H23.7683C24.2756 19.7754 24.7103 20.2102 24.7103 20.7174C24.7103 21.2246 24.2756 21.6594 23.7683 21.6594Z" fill="black"/>
<path d="M37.3914 30.6448H13.6964C13.1892 30.6448 12.7544 30.21 12.7544 29.7028C12.7544 29.1955 13.1892 28.7607 13.6964 28.7607H37.3914C37.8986 28.7607 38.3334 29.1955 38.3334 29.7028C38.3334 30.21 37.8986 30.6448 37.3914 30.6448Z" fill="black"/>
<path d="M6.30435 30.6447H2.60874C2.1015 30.6447 1.66672 30.21 1.66672 29.7027C1.66672 29.123 2.1015 28.6882 2.60874 28.6882H6.30435C6.81159 28.6882 7.24636 29.123 7.24636 29.6303C7.31883 30.21 6.88405 30.6447 6.30435 30.6447Z" fill="black"/>
<path d="M10.0004 16.442C7.46417 16.442 5.36275 14.3406 5.36275 11.8044C5.36275 9.26817 7.46417 7.16675 10.0004 7.16675C12.5366 7.16675 14.638 9.26817 14.638 11.8044C14.638 14.3406 12.609 16.442 10.0004 16.442ZM10.0004 9.05079C8.47865 9.05079 7.24678 10.2827 7.24678 11.8044C7.24678 13.3261 8.47865 14.558 10.0004 14.558C11.5221 14.558 12.754 13.3261 12.754 11.8044C12.754 10.2827 11.5221 9.05079 10.0004 9.05079Z" fill="black"/>
<path d="M27.4635 25.3546C24.9273 25.3546 22.8259 23.2532 22.8259 20.717C22.8259 18.1808 24.9273 16.0793 27.4635 16.0793C29.9997 16.0793 32.1012 18.1808 32.1012 20.717C32.1012 23.2532 30.0722 25.3546 27.4635 25.3546ZM27.4635 17.9634C25.9418 17.9634 24.7099 19.1953 24.7099 20.717C24.7099 22.2387 25.9418 23.4706 27.4635 23.4706C28.9852 23.4706 30.2171 22.2387 30.2171 20.717C30.2171 19.1953 28.9852 17.9634 27.4635 17.9634Z" fill="black"/>
<path d="M10.0004 34.34C7.46417 34.34 5.36275 32.2385 5.36275 29.7023C5.36275 27.0937 7.46417 25.0647 10.0004 25.0647C12.5366 25.0647 14.638 27.1661 14.638 29.7023C14.7105 32.2385 12.609 34.34 10.0004 34.34ZM10.0004 26.9487C8.47865 26.9487 7.24678 28.1806 7.24678 29.7023C7.24678 31.224 8.47865 32.4559 10.0004 32.4559C11.5221 32.4559 12.754 31.224 12.754 29.7023C12.754 28.1806 11.5221 26.9487 10.0004 26.9487Z" fill="black"/>
</svg>
