<svg width="16" height="16" viewBox="0 0 16 16" fill="none" xmlns="http://www.w3.org/2000/svg">
<path d="M0.789942 4.13147C0.711729 4.20896 0.667459 4.31437 0.666847 4.42458C0.665825 4.535 0.7103 4.64112 0.789942 4.71769L7.70224 11.6297C7.77963 11.7081 7.88514 11.7523 7.99535 11.7523C8.10556 11.7523 8.21107 11.7081 8.28846 11.6297L15.2021 4.71769C15.2842 4.64091 15.3316 4.53407 15.3334 4.4217C15.3353 4.30924 15.2915 4.20097 15.212 4.12142C15.1325 4.04198 15.0242 3.99812 14.9118 4.00006C14.7994 4.0019 14.6926 4.04934 14.6158 4.13144L7.99535 10.7503L1.37645 4.13144C1.29885 4.05333 1.19334 4.00947 1.08323 4.00947C0.973226 4.00947 0.867715 4.05333 0.790123 4.13144L0.789942 4.13147Z" fill="#101010"/>
</svg>
