<svg width="20" height="20" viewBox="0 0 20 20" fill="none" xmlns="http://www.w3.org/2000/svg">
<path d="M14.5261 0.987061C14.4292 0.889294 14.2974 0.833958 14.1597 0.833191C14.0217 0.831913 13.889 0.887508 13.7933 0.98706L5.15324 9.62743C5.05522 9.72417 5.00001 9.85606 5.00001 9.99382C5.00001 10.1316 5.05522 10.2635 5.15324 10.3602L13.7933 19.0022C13.8893 19.1048 14.0228 19.1641 14.1633 19.1664C14.3039 19.1687 14.4392 19.114 14.5386 19.0146C14.6379 18.9153 14.6927 18.7798 14.6903 18.6394C14.688 18.4989 14.6287 18.3654 14.5261 18.2694L6.25248 9.99382L14.5261 1.7202C14.6237 1.6232 14.6786 1.49131 14.6786 1.35367C14.6786 1.21617 14.6237 1.08428 14.5261 0.987286L14.5261 0.987061Z" fill="#101010"/>
</svg>
