<svg width="28" height="27" viewBox="0 0 28 27" fill="none" xmlns="http://www.w3.org/2000/svg">
<path fill-rule="evenodd" clip-rule="evenodd" d="M5.96212 2C5.03632 2 4.28564 2.81306 4.28564 3.81579V23.1842C4.28564 24.1869 5.03632 25 5.96212 25H21.6092C22.535 25 23.2856 24.1869 23.2856 23.1842V9.26316C23.2856 9.08509 23.2133 8.91621 23.0878 8.8011L15.8231 2.14321C15.7221 2.0508 15.5943 2 15.4621 2H5.96212ZM5.40329 3.81579C5.40329 3.48155 5.65352 3.21053 5.96212 3.21053H14.9033V8.05263C14.9033 9.05536 15.654 9.86842 16.5798 9.86842H22.168V23.1842C22.168 23.5185 21.9178 23.7895 21.6092 23.7895H5.96212C5.65352 23.7895 5.40329 23.5185 5.40329 23.1842V3.81579ZM21.2011 8.65789L16.0207 3.91035V8.05263C16.0207 8.38688 16.271 8.65789 16.5796 8.65789H21.2011Z" fill="white"/>
</svg>
