<svg width="11" height="10" viewBox="0 0 11 10" fill="none" xmlns="http://www.w3.org/2000/svg">
<g clip-path="url(#clip0_3303_2759)">
<path d="M10.0062 7.41783C10.0551 7.3694 10.0828 7.30352 10.0832 7.23464C10.0838 7.16563 10.056 7.0993 10.0062 7.05144L5.68604 2.73142C5.63767 2.68241 5.57173 2.65481 5.50285 2.65481C5.43397 2.65481 5.36802 2.68241 5.31965 2.73142L0.998648 7.05144C0.947338 7.09943 0.917689 7.1662 0.916539 7.23644C0.915389 7.30673 0.942738 7.37439 0.99245 7.42411C1.0421 7.47376 1.10983 7.50118 1.18006 7.49996C1.25029 7.49881 1.31706 7.46916 1.36506 7.41785L5.50285 3.28104L9.63966 7.41785C9.68816 7.46667 9.7541 7.49408 9.82292 7.49408C9.89167 7.49408 9.95762 7.46667 10.0061 7.41785L10.0062 7.41783Z" fill="#101010"/>
</g>
<defs>
<clipPath id="clip0_3303_2759">
<rect width="10" height="10" fill="white" transform="translate(0.5)"/>
</clipPath>
</defs>
</svg>
