<svg width="18" height="18" viewBox="0 0 18 18" fill="none" xmlns="http://www.w3.org/2000/svg">
<path d="M4.6479 17.1115C4.73509 17.1995 4.85367 17.2493 4.97765 17.25C5.10187 17.2511 5.22126 17.2011 5.3074 17.1115L13.0834 9.33517C13.1717 9.2481 13.2213 9.1294 13.2213 9.00542C13.2213 8.88143 13.1717 8.76273 13.0834 8.67566L5.3074 0.89786C5.22102 0.805501 5.10083 0.752133 4.97441 0.750063C4.84789 0.747992 4.72609 0.797221 4.6366 0.886704C4.54723 0.976074 4.49788 1.09799 4.50007 1.2244C4.50214 1.35081 4.55551 1.471 4.64787 1.55739L12.0941 9.00542L4.64787 16.4517C4.55999 16.539 4.51065 16.6577 4.51065 16.7815C4.51065 16.9053 4.55999 17.024 4.64787 17.1113L4.6479 17.1115Z" fill="#101010"/>
</svg>
