<svg width="11" height="10" viewBox="0 0 11 10" fill="none" xmlns="http://www.w3.org/2000/svg">
<g clip-path="url(#clip0_3303_2761)">
<path d="M0.993774 2.58217C0.944891 2.6306 0.917223 2.69648 0.91684 2.76536C0.916201 2.83437 0.943998 2.9007 0.993774 2.94856L5.31396 7.26858C5.36233 7.31759 5.42827 7.34519 5.49715 7.34519C5.56603 7.34519 5.63198 7.31759 5.68035 7.26858L10.0014 2.94856C10.0527 2.90057 10.0823 2.8338 10.0835 2.76356C10.0846 2.69327 10.0573 2.62561 10.0075 2.57589C9.9579 2.52624 9.89017 2.49882 9.81994 2.50004C9.74971 2.50119 9.68294 2.53084 9.63494 2.58215L5.49715 6.71896L1.36034 2.58215C1.31184 2.53333 1.2459 2.50592 1.17708 2.50592C1.10833 2.50592 1.04238 2.53333 0.993887 2.58215L0.993774 2.58217Z" fill="#101010"/>
</g>
<defs>
<clipPath id="clip0_3303_2761">
<rect width="10" height="10" fill="white" transform="translate(0.5)"/>
</clipPath>
</defs>
</svg>
