<svg width="18" height="19" viewBox="0 0 18 19" fill="none" xmlns="http://www.w3.org/2000/svg">
<path d="M4.6479 17.6115C4.73509 17.6995 4.85367 17.7493 4.97765 17.75C5.10187 17.7511 5.22126 17.7011 5.3074 17.6115L13.0834 9.83517C13.1717 9.7481 13.2213 9.6294 13.2213 9.50542C13.2213 9.38143 13.1717 9.26273 13.0834 9.17566L5.3074 1.39786C5.22102 1.3055 5.10083 1.25213 4.97441 1.25006C4.84789 1.24799 4.72609 1.29722 4.6366 1.3867C4.54723 1.47607 4.49788 1.59799 4.50007 1.7244C4.50214 1.85081 4.55551 1.971 4.64787 2.05739L12.0941 9.50542L4.64787 16.9517C4.55999 17.039 4.51065 17.1577 4.51065 17.2815C4.51065 17.4053 4.55999 17.524 4.64787 17.6113L4.6479 17.6115Z" fill="#EB0A1E"/>
</svg>
