<svg width="24" height="25" viewBox="0 0 24 25" fill="none" xmlns="http://www.w3.org/2000/svg">
<path fill-rule="evenodd" clip-rule="evenodd" d="M14.7955 14.5943C14.6851 14.5954 14.543 14.6113 14.3662 14.6451C13.9959 14.7179 13.6396 14.8047 13.348 14.9756C13.0569 15.1442 12.8197 15.3861 12.6636 15.835C12.603 16.004 12.628 16.1527 12.667 16.2227C12.7072 16.2908 12.7227 16.3095 12.8371 16.286L14.986 15.829C15.1873 15.7853 15.2168 15.6526 15.2478 15.4944C15.285 15.2946 15.2183 15.0081 15.1598 14.8296C15.093 14.6281 14.9501 14.5943 14.7955 14.5943L14.7955 14.5943ZM14.7906 14.0318C15.0416 14.0303 15.2586 14.1044 15.4132 14.2301C15.5699 14.3554 15.6551 14.5212 15.7001 14.673C15.7604 14.8869 15.8396 15.2135 15.8056 15.5515C15.7869 15.7216 15.7404 15.8986 15.6256 16.0547C15.5098 16.2097 15.3255 16.3306 15.1053 16.3773L12.953 16.8357C12.6386 16.9039 12.3209 16.7489 12.1799 16.5026C12.0374 16.2562 12.0279 15.9496 12.1336 15.6506C12.3302 15.0882 12.6759 14.7164 13.0643 14.4885C13.4533 14.2624 13.8746 14.1675 14.2589 14.0936H14.2604C14.4623 14.0545 14.6354 14.0344 14.7906 14.0317L14.7906 14.0318Z" fill="#101010"/>
<path fill-rule="evenodd" clip-rule="evenodd" d="M2.8868 14.5943C2.99717 14.5954 3.13778 14.6113 3.31426 14.6451C3.68457 14.7179 4.04235 14.8047 4.33387 14.9756C4.625 15.1442 4.8607 15.3861 5.01827 15.835C5.07747 16.004 5.05394 16.1527 5.01379 16.2227C4.97326 16.2908 4.95795 16.3095 4.84478 16.286L2.69445 15.829C2.49463 15.7853 2.46363 15.6526 2.43413 15.4944C2.3951 15.2946 2.46177 15.0081 2.52078 14.8296C2.58763 14.6281 2.73217 14.5943 2.88679 14.5943L2.8868 14.5943ZM2.88979 14.0318C2.6388 14.0303 2.42181 14.1044 2.2672 14.2301C2.11221 14.3554 2.02537 14.5212 1.98186 14.673C1.92004 14.8869 1.84124 15.2135 1.87635 15.5515C1.89334 15.7216 1.94152 15.8986 2.05637 16.0547C2.17084 16.2097 2.35497 16.3306 2.57665 16.3773L4.72889 16.8357C5.04337 16.9039 5.35951 16.7489 5.50202 16.5026C5.64338 16.2562 5.65216 15.9496 5.54702 15.6506C5.35038 15.0882 5.00657 14.7164 4.61628 14.4885C4.22729 14.2624 3.80601 14.1675 3.42169 14.0936H3.4202C3.22001 14.0545 3.04671 14.0344 2.88983 14.0317L2.88979 14.0318Z" fill="#101010"/>
<path fill-rule="evenodd" clip-rule="evenodd" d="M8.8415 8.22693C9.95243 8.22357 10.9904 8.24561 12.1818 8.45308C12.3801 8.4951 12.5088 8.6529 12.6247 8.8684C13.0432 9.64301 13.322 10.4981 13.59 11.3894C12.4695 11.5099 10.5069 11.7084 8.84129 11.7084C7.17572 11.7084 5.21135 11.5101 4.09259 11.3894C4.36056 10.4983 4.64107 9.64301 5.05784 8.8684C5.17419 8.65308 5.30267 8.4951 5.49931 8.45308C6.52657 8.23608 7.67469 8.22693 8.84145 8.22693H8.8415ZM5.38319 7.90181C4.95237 7.99313 4.70773 8.33263 4.56225 8.60175C4.0601 9.53301 3.72435 10.526 3.42499 11.5672C3.37718 11.7347 3.49165 11.903 3.66327 11.9219C4.70775 12.0397 7.00059 12.269 8.84119 12.269C10.6834 12.269 12.9733 12.0382 14.0172 11.9219C14.1888 11.9032 14.3037 11.7347 14.2572 11.5672C13.9565 10.5261 13.6702 9.50519 13.1184 8.60175C12.8876 8.2221 12.6306 7.96363 12.2894 7.89995C11.0483 7.66577 9.96409 7.6611 8.81621 7.66278C7.66995 7.66446 6.48937 7.66764 5.38313 7.90182L5.38319 7.90181Z" fill="black"/>
<path d="M14.0794 19.7352H15.9202V20.7391C15.9202 20.9066 15.8212 20.9901 15.7372 20.9901H14.2606C14.1752 20.9901 14.0794 20.9065 14.0794 20.7391L14.0794 19.7352ZM1.7626 19.7352H3.60482V20.7391C3.60482 20.9066 3.50585 20.9901 3.42031 20.9901H1.94558C1.86024 20.9901 1.76257 20.9065 1.76257 20.7391L1.7626 19.7352ZM8.84177 6.9642C9.98521 6.9642 11.0524 6.9502 12.1231 7.07867C13.1812 7.20604 13.6198 7.68782 13.9914 8.57224C14.4178 9.58383 14.8219 10.7131 15.2607 11.7728C15.313 11.8987 15.4357 11.9822 15.5737 11.9822L16.6841 11.9788C16.954 11.9788 16.9958 12.0981 17.0081 12.2778C17.0406 12.7193 16.8668 13.0711 16.348 13.3727C16.193 13.4628 16.1358 13.658 16.2161 13.8177L16.3756 14.1398C16.5754 14.5706 16.7102 15.0152 16.7102 15.3669V18.1122C16.7102 18.3464 16.6355 18.6235 16.5291 18.8106C16.4221 18.9983 16.3153 19.0601 16.2578 19.0601L1.42534 19.0605C1.36801 19.0605 1.2597 18.9987 1.15251 18.811C1.04569 18.6239 0.972865 18.3468 0.972865 18.1126V15.3673C0.972865 15.0139 1.10938 14.5661 1.31087 14.1336L1.46699 13.818C1.54579 13.6584 1.48865 13.4632 1.33515 13.373C0.816352 13.071 0.65969 12.7194 0.673506 12.2781C0.681536 12.0132 0.817858 11.9792 0.999187 11.9792L2.10959 11.9825C2.2461 11.9825 2.37009 11.8989 2.42126 11.7732C2.85936 10.7134 3.267 9.58419 3.69315 8.5726C4.06477 7.68818 4.50027 7.20639 5.56004 7.07903C6.63081 6.95018 7.69976 6.96419 8.84171 6.96419L8.84177 6.9642ZM8.84177 6.29023C7.70637 6.29023 6.60759 6.27323 5.47835 6.40956C4.21244 6.56157 3.49515 7.30516 3.07216 8.30742C2.66319 9.27718 2.28053 10.3244 1.88073 11.3056L0.999465 11.3054C0.718975 11.3054 0.455476 11.3842 0.267979 11.5687C0.0803004 11.7532 0 12.0163 0 12.2782C0 12.8096 0.275819 13.3226 0.762464 13.7217C0.514655 14.2546 0.29934 14.8666 0.29934 15.3673V18.1126C0.328845 18.791 0.530154 19.2249 1.08944 19.5035V20.7386C1.08944 21.2249 1.45508 21.6634 1.94622 21.6634H3.42129C3.91241 21.6634 4.27937 21.2245 4.27937 20.7386L4.27918 19.7353H13.4064V20.7392C13.4064 21.2255 13.7705 21.664 14.2617 21.664H15.7383C16.2294 21.664 16.5951 21.2251 16.5951 20.7392V19.5041C17.1777 19.2518 17.3803 18.6926 17.3867 18.1132V15.3679C17.3867 14.7232 17.1665 14.2431 16.9236 13.7223C17.4102 13.3228 17.6842 12.81 17.6842 12.2787C17.6842 12.0169 17.6054 11.7538 17.4177 11.5693C17.23 11.3848 16.9652 11.306 16.6847 11.306H15.8018C15.4035 10.3252 15.0225 9.27756 14.6134 8.30781C14.19 7.30574 13.4699 6.56192 12.2042 6.40994C11.0742 6.27325 9.97872 6.29024 8.84184 6.29024L8.84177 6.29023Z" fill="black"/>
<path fill-rule="evenodd" clip-rule="evenodd" d="M7.47022 17.0015H10.2125C10.4419 17.0015 10.6183 17.1779 10.6183 17.4072C10.6183 17.6354 10.4419 17.8117 10.2125 17.8117H7.47022C7.23941 17.8117 7.06294 17.6353 7.06294 17.4072C7.06312 17.1779 7.23941 17.0015 7.47022 17.0015ZM7.47022 16.439C6.93876 16.439 6.50195 16.8756 6.50195 17.4072C6.50195 17.9387 6.93856 18.3742 7.47022 18.3742H10.2125C10.744 18.3742 11.1808 17.9387 11.1808 17.4072C11.1808 16.8758 10.7442 16.439 10.2125 16.439H7.47022Z" fill="black"/>
<path fill-rule="evenodd" clip-rule="evenodd" d="M21.1109 10.8047C21.0006 10.8058 20.8585 10.8217 20.6816 10.8555C20.3113 10.9283 19.955 11.0152 19.6635 11.186C19.3723 11.3547 19.1352 11.5965 18.9791 12.0455C18.9184 12.2145 18.9434 12.3631 18.9824 12.4331C19.0226 12.5013 19.0381 12.52 19.1526 12.4964L21.3014 12.0395C21.5027 11.9958 21.5322 11.863 21.5632 11.7048C21.6004 11.505 21.5337 11.2185 21.4753 11.04C21.4084 10.8385 21.2656 10.8047 21.1109 10.8047L21.1109 10.8047ZM21.1061 10.2422C21.3571 10.2407 21.5741 10.3149 21.7287 10.4405C21.8853 10.5658 21.9705 10.7317 22.0155 10.8835C22.0758 11.0973 22.155 11.4239 22.121 11.7619C22.1023 11.9321 22.0558 12.1091 21.941 12.2652C21.8252 12.4202 21.6409 12.541 21.4207 12.5877L19.2685 13.0462C18.954 13.1143 18.6363 12.9593 18.4953 12.713C18.3528 12.4667 18.3433 12.1601 18.449 11.8611C18.6457 11.2986 18.9913 10.9268 19.3798 10.699C19.7688 10.4728 20.19 10.378 20.5744 10.304H20.5758C20.7777 10.265 20.9508 10.2448 21.106 10.2422L21.1061 10.2422Z" fill="black"/>
<path fill-rule="evenodd" clip-rule="evenodd" d="M15.1569 4.43738C16.2678 4.43402 17.3058 4.45606 18.4972 4.66353C18.6955 4.70555 18.8242 4.86335 18.9402 5.07885C19.3587 5.85346 19.6375 6.70857 19.9054 7.59987C18.7849 7.72032 16.8223 7.91883 15.1567 7.91883C14.7986 7.91883 14.4266 7.90966 14.0522 7.89407C13.8945 6.92115 12.6313 6.28957 10.7367 6.57025C10.9171 6.05003 11.12 5.54955 11.3733 5.07885C11.4896 4.86353 11.6181 4.70555 11.8147 4.66353C12.842 4.44653 13.9902 4.43738 15.1569 4.43738ZM11.6986 4.11226C11.2678 4.20358 11.0232 4.54308 10.8777 4.81219C10.5734 5.37655 10.3302 5.96356 10.1191 6.57025C12.6313 6.92115 13.2628 6.92115 14.3092 8.46531C14.598 8.47436 14.8823 8.47946 15.1566 8.47946C16.9988 8.47946 19.2887 8.24864 20.3326 8.1323C20.5042 8.11363 20.6191 7.94518 20.5726 7.77767C20.2719 6.73659 19.9857 5.71564 19.4338 4.81219C19.203 4.43254 18.9461 4.17407 18.6049 4.1104C17.3638 3.87622 16.2795 3.87155 15.1316 3.87323C13.9854 3.87491 12.8048 3.87808 11.6986 4.11226Z" fill="black"/>
<path d="M20.395 15.9457H22.2358V16.9496C22.2358 17.1171 22.1368 17.2006 22.0528 17.2006H20.5762C20.4908 17.2006 20.395 17.1169 20.395 16.9496L20.395 15.9457ZM15.1574 3.17465C16.3008 3.17465 17.368 3.16065 18.4387 3.28912C19.4968 3.41648 19.9354 3.89827 20.307 4.78269C20.7334 5.79428 21.1375 6.92351 21.5763 7.98328C21.6286 8.10915 21.7513 8.19262 21.8893 8.19262L22.9997 8.18926C23.2696 8.18926 23.3114 8.30859 23.3237 8.48824C23.3562 8.9297 23.1823 9.28154 22.6636 9.5831C22.5086 9.6733 22.4514 9.86845 22.5317 10.0281L22.6912 10.3502C22.891 10.7811 23.0258 11.2257 23.0258 11.5773V14.3227C23.0258 14.5568 22.9511 14.834 22.8447 15.0211C22.7377 15.2088 22.6309 15.2706 22.5734 15.2706L17.0524 15.2707C17.0524 15.1507 16.4208 13.8684 17.0524 13.2368C17.6839 12.6052 17.4565 11.8076 17.1412 11.5773C16.4208 11.3421 16.3221 11.5773 15.7892 11.5773C15.3576 10.5889 15.3303 10.7682 15.0392 9.93271C14.4939 8.36772 13.8945 7.55262 13.2631 6.92104C12.5256 6.57197 10.1542 6.55131 9.30513 6.55131C9.53957 5.94694 9.77128 5.34673 10.0087 4.78305C10.3804 3.89863 10.8159 3.41684 11.8756 3.28948C12.9464 3.16063 14.0154 3.17465 15.1574 3.17465ZM15.1574 2.50068C14.022 2.50068 12.9232 2.48368 11.7939 2.62001C10.528 2.77202 9.81074 3.51561 9.38775 4.51787C9.11063 5.17499 8.84558 5.8677 8.5791 6.55131C11.3682 6.92104 11.3682 6.92104 12.6314 6.92104C13.5751 7.60106 14.2213 7.78824 14.7629 9.93271C15.0168 10.938 15.4559 10.7235 15.7892 11.9737C16.4208 11.9737 16.7366 11.5773 17.0524 11.9737C17.1405 12.433 17.0524 13.2368 16.4208 13.8684C17.0524 14.5 16.8023 15.9457 17.0524 15.9457H19.722V16.9496C19.722 17.4359 20.0861 17.8744 20.5773 17.8744H22.0539C22.545 17.8744 22.9107 17.4356 22.9107 16.9496V15.7145C23.4933 15.4622 23.6959 14.9031 23.7023 14.3236V11.5783C23.7023 10.9337 23.4821 10.4536 23.2392 9.93271C23.7258 9.53326 23.9998 9.02047 23.9998 8.48919C23.9998 8.22738 23.921 7.96428 23.7333 7.77975C23.5456 7.59524 23.2808 7.51644 23.0003 7.51644H22.1174C21.7191 6.53564 21.3381 5.48801 20.929 4.51826C20.5056 3.51619 19.7855 2.77237 18.5198 2.62039C17.3897 2.4837 16.2942 2.50068 15.1574 2.50068Z" fill="black"/>
</svg>
