<svg width="24" height="25" viewBox="0 0 24 25" fill="none" xmlns="http://www.w3.org/2000/svg">
<g clip-path="url(#clip0_2689_9780)">
<path fill-rule="evenodd" clip-rule="evenodd" d="M20.0792 13.7712C19.9294 13.7728 19.7365 13.7943 19.4965 13.8402C18.994 13.939 18.5104 14.0569 18.1148 14.2888C17.7197 14.5176 17.3978 14.8458 17.186 15.4551C17.1036 15.6845 17.1376 15.8862 17.1905 15.9812C17.245 16.0738 17.266 16.0991 17.4214 16.0672L20.3377 15.447C20.6109 15.3877 20.651 15.2075 20.693 14.9928C20.7435 14.7217 20.653 14.3329 20.5737 14.0906C20.4829 13.8172 20.2891 13.7713 20.0792 13.7713L20.0792 13.7712ZM20.0726 13.0079C20.4132 13.0058 20.7077 13.1064 20.9175 13.277C21.1302 13.4471 21.2457 13.6721 21.3068 13.8782C21.3887 14.1683 21.4961 14.6116 21.45 15.0703C21.4247 15.3012 21.3616 15.5415 21.2057 15.7533C21.0486 15.9637 20.7984 16.1277 20.4996 16.191L17.5787 16.8132C17.1519 16.9057 16.7208 16.6954 16.5295 16.3611C16.3361 16.0268 16.3232 15.6107 16.4666 15.2049C16.7335 14.4415 17.2026 13.9369 17.7298 13.6277C18.2577 13.3208 18.8294 13.1921 19.351 13.0917H19.353C19.627 13.0387 19.8619 13.0114 20.0725 13.0078L20.0726 13.0079Z" fill="black"/>
<path fill-rule="evenodd" clip-rule="evenodd" d="M3.91826 13.7712C4.06804 13.7728 4.25888 13.7943 4.49838 13.8402C5.00094 13.939 5.4865 14.0569 5.88214 14.2888C6.27725 14.5176 6.59712 14.8458 6.81097 15.4551C6.89131 15.6845 6.85938 15.8862 6.80489 15.9812C6.74989 16.0738 6.72911 16.0991 6.57552 16.0672L3.65721 15.447C3.38603 15.3877 3.34396 15.2075 3.30391 14.9928C3.25094 14.7217 3.34142 14.3329 3.42151 14.0906C3.51224 13.8172 3.7084 13.7713 3.91825 13.7713L3.91826 13.7712ZM3.92231 13.0079C3.58169 13.0058 3.28719 13.1064 3.07737 13.277C2.86702 13.4471 2.74917 13.6721 2.69012 13.8782C2.60623 14.1683 2.49928 14.6116 2.54693 15.0703C2.56999 15.3012 2.63538 15.5415 2.79124 15.7533C2.9466 15.9637 3.19649 16.1277 3.49733 16.191L6.41824 16.8132C6.84503 16.9057 7.27408 16.6954 7.46749 16.3611C7.65934 16.0268 7.67125 15.6107 7.52856 15.2049C7.26169 14.4415 6.79509 13.9369 6.26541 13.6277C5.7375 13.3208 5.16575 13.1921 4.64418 13.0917H4.64215C4.37047 13.0387 4.13528 13.0114 3.92237 13.0078L3.92231 13.0079Z" fill="black"/>
<path fill-rule="evenodd" clip-rule="evenodd" d="M11.9991 5.12917C13.5068 5.12461 14.9154 5.15451 16.5324 5.43608C16.8015 5.49311 16.9761 5.70726 17.1335 5.99973C17.7015 7.05099 18.0799 8.2115 18.4435 9.42113C16.9229 9.58459 14.2593 9.854 11.9988 9.854C9.73841 9.854 7.07248 9.58485 5.55415 9.42113C5.91784 8.21169 6.29853 7.05099 6.86415 5.99973C7.02204 5.70752 7.19641 5.49311 7.46328 5.43608C8.85743 5.14159 10.4156 5.12917 11.9991 5.12917H11.9991ZM7.30569 4.68793C6.72101 4.81186 6.389 5.27261 6.19156 5.63784C5.51006 6.90171 5.05441 8.24927 4.64813 9.66243C4.58325 9.88976 4.7386 10.1181 4.97152 10.1437C6.38902 10.3036 9.50074 10.6149 11.9987 10.6149C14.4989 10.6149 17.6066 10.3016 19.0233 10.1437C19.2562 10.1184 19.4121 9.88976 19.349 9.66243C18.9409 8.24953 18.5524 6.86395 17.8035 5.63784C17.4903 5.1226 17.1415 4.77182 16.6785 4.6854C14.9941 4.36759 13.5226 4.36125 11.9648 4.36353C10.4092 4.36582 8.80695 4.37012 7.30562 4.68794L7.30569 4.68793Z" fill="#101010"/>
<path d="M19.1079 20.7477H21.606V22.1102C21.606 22.3375 21.4717 22.4508 21.3576 22.4508H19.3537C19.2379 22.4508 19.1078 22.3373 19.1078 22.1102L19.1079 20.7477ZM2.3921 20.7477H4.89226V22.1102C4.89226 22.3375 4.75794 22.4508 4.64187 22.4508H2.64044C2.52461 22.4508 2.39207 22.3373 2.39207 22.1102L2.3921 20.7477ZM11.9996 3.4156C13.5514 3.4156 14.9998 3.39659 16.4528 3.57096C17.8888 3.7438 18.4841 4.39766 18.9884 5.59795C19.567 6.97081 20.1154 8.50335 20.7111 9.94161C20.782 10.1124 20.9485 10.2257 21.1358 10.2257L22.6428 10.2212C23.009 10.2212 23.0658 10.3831 23.0825 10.6269C23.1266 11.226 22.8906 11.7035 22.1866 12.1128C21.9762 12.2352 21.8987 12.5001 22.0076 12.7167L22.2241 13.1539C22.4953 13.7386 22.6782 14.342 22.6782 14.8193V18.5451C22.6782 18.8629 22.5769 19.239 22.4324 19.4929C22.2872 19.7476 22.1422 19.8315 22.0642 19.8315L1.9344 19.832C1.85659 19.832 1.7096 19.7481 1.56413 19.4934C1.41916 19.2395 1.32032 18.8634 1.32032 18.5456V14.8198C1.32032 14.3403 1.50559 13.7325 1.77904 13.1455L1.99092 12.7172C2.09786 12.5005 2.02031 12.2357 1.81199 12.1133C1.10791 11.7035 0.895296 11.2262 0.914046 10.6274C0.924944 10.2678 1.10995 10.2216 1.35604 10.2216L2.86302 10.2262C3.04828 10.2262 3.21656 10.1127 3.286 9.9421C3.88057 8.50384 4.4338 6.9713 5.01214 5.59843C5.51648 4.39815 6.10752 3.74428 7.54578 3.57144C8.99897 3.39657 10.4497 3.41558 11.9995 3.41558L11.9996 3.4156ZM11.9996 2.50092C10.4587 2.50092 8.96746 2.47786 7.43492 2.66287C5.71689 2.86917 4.74343 3.87833 4.16937 5.23855C3.61434 6.55464 3.09502 7.97591 2.55242 9.30751L1.35642 9.30726C0.975754 9.30726 0.618147 9.41421 0.363686 9.66461C0.108979 9.91501 0 10.2721 0 10.6274C0 11.3487 0.374327 12.0449 1.03478 12.5865C0.698462 13.3098 0.406248 14.1403 0.406248 14.8198V18.5456C0.446291 19.4663 0.719496 20.0551 1.47852 20.4332V22.1095C1.47852 22.7694 1.97475 23.3645 2.64131 23.3645H4.64319C5.3097 23.3645 5.80773 22.7689 5.80773 22.1095L5.80747 20.7478H18.1944V22.1103C18.1944 22.7702 18.6886 23.3653 19.3552 23.3653H21.3591C22.0257 23.3653 22.5219 22.7697 22.5219 22.1103V20.434C23.3127 20.0916 23.5877 19.3328 23.5963 18.5464V14.8206C23.5963 13.9457 23.2975 13.2941 22.9678 12.5873C23.6282 12.0452 24 11.3492 24 10.6282C24 10.2729 23.893 9.91582 23.6383 9.66539C23.3836 9.41499 23.0243 9.30804 22.6436 9.30804H21.4453C20.9047 7.97696 20.3877 6.55517 19.8325 5.23907C19.2579 3.87912 18.2807 2.86965 16.5628 2.66339C15.0292 2.47787 13.5426 2.50094 11.9997 2.50094L11.9996 2.50092Z" fill="black"/>
<path fill-rule="evenodd" clip-rule="evenodd" d="M10.1373 17.0378H13.8591C14.1703 17.0378 14.4098 17.2773 14.4098 17.5885C14.4098 17.8982 14.1703 18.1375 13.8591 18.1375H10.1373C9.82408 18.1375 9.58458 17.898 9.58458 17.5885C9.58483 17.2773 9.82408 17.0378 10.1373 17.0378ZM10.1373 16.2744C9.41605 16.2744 8.82324 16.867 8.82324 17.5885C8.82324 18.3098 9.41578 18.9008 10.1373 18.9008H13.8591C14.5803 18.9008 15.1731 18.3098 15.1731 17.5885C15.1731 16.8672 14.5806 16.2744 13.8591 16.2744H10.1373Z" fill="black"/>
</g>
<defs>
<clipPath id="clip0_2689_9780">
<rect width="24" height="24" fill="white" transform="translate(0 0.5)"/>
</clipPath>
</defs>
</svg>
