<svg width="18" height="18" viewBox="0 0 18 18" fill="none" xmlns="http://www.w3.org/2000/svg">
<path d="M16.0779 0.952834L9.47336 7.55737C9.20292 7.82782 8.77463 7.82782 8.52664 7.55737L1.9221 0.952834C1.65166 0.682389 1.22337 0.682389 0.975375 0.952834C0.70493 1.22328 0.70493 1.65157 0.975375 1.89956L7.57991 8.5041C7.85036 8.77454 7.85036 9.20283 7.57991 9.45082L0.952834 16.0779C0.682389 16.3483 0.682389 16.7766 0.952834 17.0246C1.22328 17.2951 1.65157 17.2951 1.89956 17.0246L8.5041 10.4201C8.77454 10.1496 9.20283 10.1496 9.45082 10.4201L16.0779 17.0472C16.3483 17.3176 16.7766 17.3176 17.0246 17.0472C17.2951 16.7767 17.2951 16.3484 17.0246 16.1004L10.4426 9.47336C10.1722 9.20292 10.1722 8.77463 10.4426 8.52664L17.0472 1.9221C17.3176 1.65166 17.3176 1.22337 17.0472 0.975375C16.7767 0.704773 16.3484 0.704773 16.078 0.952733L16.0779 0.952834Z" fill="black"/>
</svg>
