<svg width="40" height="40" viewBox="0 0 40 40" fill="none" xmlns="http://www.w3.org/2000/svg">
<path d="M19.9993 13.7413C15.5396 13.7413 11.9115 17.3695 11.9115 21.8292C11.9115 26.2887 15.5397 29.9171 19.9993 29.9171C24.459 29.9171 28.0872 26.2889 28.0872 21.8292C28.0872 17.3697 24.459 13.7413 19.9993 13.7413ZM19.9993 28.1706C16.5027 28.1706 13.6577 25.3256 13.6577 21.8289C13.6577 18.3323 16.5027 15.4873 19.9993 15.4873C23.496 15.4873 26.341 18.3323 26.341 21.8289C26.341 25.3256 23.496 28.1706 19.9993 28.1706ZM35.4453 9.36454H28.0879L26.0428 5.46757C25.8919 5.18012 25.5942 5 25.2698 5L14.7299 5.00026C14.4053 5.00026 14.1078 5.18012 13.957 5.46783L11.9119 9.3648L4.55446 9.36454C2.96213 9.36454 1.66699 10.66 1.66699 12.2525V32.9637C1.66699 34.556 2.9624 35.8516 4.55446 35.8516H35.4457C37.038 35.8516 38.3337 34.5562 38.3337 32.9637L38.3334 12.2518C38.3334 10.6592 37.0383 9.36413 35.4459 9.36413L35.4453 9.36454ZM36.5867 32.9632C36.5867 33.5924 36.0748 34.1048 35.445 34.1048H4.55379C3.92456 34.1048 3.41217 33.5924 3.41217 32.9632V12.252C3.41217 11.6223 3.92404 11.1104 4.55379 11.1104H12.4391C12.7638 11.1104 13.0612 10.9305 13.2121 10.6428L15.2572 6.74585H24.7419L26.787 10.6428C26.9379 10.9303 27.2356 11.1104 27.56 11.1104H35.4453C36.0745 11.1104 36.5869 11.6223 36.5869 12.252L36.5872 32.9632H36.5867ZM10.2248 14.1795C10.2248 14.6615 9.83419 15.0527 9.35156 15.0527H6.63004C6.14796 15.0527 5.75684 14.6616 5.75684 14.1795C5.75684 13.6974 6.14741 13.3063 6.63004 13.3063H9.35156C9.83363 13.3063 10.2248 13.6968 10.2248 14.1795Z" fill="#101010"/>
</svg>
