<svg width="18" height="19" viewBox="0 0 18 19" fill="none" xmlns="http://www.w3.org/2000/svg">
<path d="M16.5446 16.7793H1.98527C1.71732 16.7793 1.5 16.9968 1.5 17.2646C1.5 17.5325 1.7175 17.7498 1.98527 17.7498H16.5446C16.8125 17.7498 17.0299 17.5323 17.0299 17.2646C17.0299 16.9968 16.8125 16.7793 16.5446 16.7793Z" fill="black"/>
<path d="M1.98544 15.8093H2.10189L5.98447 14.8387C6.05793 14.8167 6.12479 14.7768 6.17861 14.7225L15.8848 5.0171C15.9921 4.93298 16.0571 4.80603 16.0627 4.66961C16.0683 4.53318 16.014 4.40115 15.9139 4.30857L13.0021 1.39692C12.9139 1.30315 12.7909 1.25 12.6622 1.25C12.5336 1.25 12.4106 1.30315 12.3225 1.39709L2.61631 11.1024C2.55961 11.1585 2.51933 11.2289 2.49986 11.3062L1.52933 15.1885C1.48058 15.352 1.52949 15.5292 1.65543 15.6444C1.73752 15.7433 1.85719 15.8032 1.98549 15.8093L1.98544 15.8093ZM12.6623 2.42552L14.8851 4.64794L13.633 5.90013L11.4102 3.67771L12.6623 2.42552ZM10.7212 4.36646L12.9439 6.58889L5.86793 13.6645L3.64516 11.4417L10.7212 4.36646ZM3.21835 12.3927L4.91689 14.0913L2.65539 14.6541L3.21835 12.3927Z" fill="black"/>
</svg>
