<svg width="22" height="22" viewBox="0 0 22 22" fill="none" xmlns="http://www.w3.org/2000/svg">
<path d="M15.62 1.87682C15.3549 1.87682 15.1398 1.66162 15.1398 1.3967C15.1398 1.13161 15.355 0.91659 15.62 0.91659H18.2028C18.9955 0.91659 19.7158 1.24063 20.2376 1.76261C20.7596 2.2846 21.0837 3.00471 21.0837 3.79748V6.32687C21.0837 6.59197 20.8685 6.80698 20.6035 6.80698C20.3384 6.80698 20.1234 6.59179 20.1234 6.32687V3.79748C20.1234 3.26978 19.9074 2.78967 19.5587 2.44151C19.2106 2.09335 18.7305 1.87682 18.2028 1.87682H15.62ZM20.1231 15.7177C20.1231 15.4526 20.3383 15.2376 20.6032 15.2376C20.8683 15.2376 21.0834 15.4528 21.0834 15.7177V18.2021C21.0834 18.9948 20.7593 19.7151 20.2373 20.2369C19.7153 20.7589 18.9952 21.083 18.2025 21.083H15.6019C15.3368 21.083 15.1218 20.8678 15.1218 20.6028C15.1218 20.3377 15.337 20.1227 15.6019 20.1227H18.2025C18.7302 20.1227 19.2103 19.9067 19.5584 19.558C19.9066 19.2099 20.1231 18.7298 20.1231 18.2021V15.7177ZM6.2775 20.1227C6.5426 20.1227 6.75761 20.3379 6.75761 20.6028C6.75761 20.8679 6.54242 21.083 6.2775 21.083H3.79801C3.00524 21.083 2.28496 20.7589 1.76314 20.2369C1.24114 19.7149 0.917121 18.9948 0.917121 18.2021V15.7177C0.917121 15.4526 1.13231 15.2376 1.39723 15.2376C1.66233 15.2376 1.87735 15.4528 1.87735 15.7177V18.2021C1.87735 18.7298 2.09338 19.2099 2.44204 19.558C2.7902 19.9062 3.27031 20.1227 3.79801 20.1227H6.2775ZM1.87722 6.2861C1.87722 6.5512 1.66203 6.76621 1.3971 6.76621C1.13201 6.76621 0.916992 6.55102 0.916992 6.2861V3.79739C0.916992 3.00462 1.24104 2.28435 1.76301 1.76252C2.28501 1.24052 3.00511 0.916504 3.79788 0.916504H6.3509C6.61599 0.916504 6.83101 1.1317 6.83101 1.39662C6.83101 1.66171 6.61582 1.87673 6.3509 1.87673H3.79788C3.27018 1.87673 2.79007 2.09276 2.44192 2.44143C2.09376 2.78959 1.87722 3.2697 1.87722 3.79739V6.2861ZM6.8584 6.90254C7.1014 6.90254 7.30066 7.10132 7.30066 7.3448V8.75453C7.30066 8.99752 7.10188 9.19679 6.8584 9.19679C6.61541 9.19679 6.41615 8.99801 6.41615 8.75453V7.3448C6.41615 7.10181 6.61493 6.90254 6.8584 6.90254ZM10.8504 7.43843C10.8514 7.17434 11.0665 6.96115 11.3305 6.96218C11.5946 6.96318 11.8078 7.17821 11.8068 7.44229L11.779 11.3883C11.7772 11.6763 11.7631 12.0705 11.5851 12.4264C11.3772 12.8417 10.9939 13.1582 10.278 13.139C10.0139 13.1328 9.80459 12.9137 9.81081 12.6491C9.81701 12.385 10.0361 12.1757 10.3007 12.1819C10.5547 12.1886 10.6756 12.107 10.7299 11.9985C10.8139 11.8304 10.8211 11.5745 10.8225 11.3844L10.8503 7.43846L10.8504 7.43843ZM7.31074 15.1102C7.15416 14.897 7.20038 14.5969 7.41389 14.4403C7.62708 14.2838 7.92719 14.33 8.08375 14.5435C8.17552 14.6688 8.28304 14.7831 8.40311 14.8863C8.98993 15.3906 9.88049 15.6531 10.8054 15.6642C11.7393 15.6752 12.6929 15.4289 13.3929 14.9161C13.5652 14.7899 13.7208 14.6482 13.8557 14.4913C14.0276 14.2902 14.3302 14.267 14.5308 14.4389C14.7319 14.6107 14.755 14.9133 14.5832 15.1139C14.3978 15.3294 14.188 15.521 13.9591 15.6886C13.0871 16.3272 11.9222 16.6342 10.7938 16.6206C9.65587 16.6072 8.54041 16.2677 7.78026 15.6141C7.60359 15.4624 7.44567 15.2939 7.3107 15.1098L7.31074 15.1102ZM15.0751 6.90254C15.3181 6.90254 15.5174 7.10132 15.5174 7.3448V8.75453C15.5174 8.99752 15.3186 9.19679 15.0751 9.19679C14.8321 9.19679 14.6329 8.99801 14.6329 8.75453V7.3448C14.6329 7.10181 14.8316 6.90254 15.0751 6.90254Z" fill="black"/>
</svg>
