<svg width="38" height="38" viewBox="0 0 38 38" fill="none" xmlns="http://www.w3.org/2000/svg">
<path d="M27.3993 2.41252C26.9173 2.41252 26.5264 2.02127 26.5264 1.53959C26.5264 1.0576 26.9176 0.66666 27.3993 0.66666H32.0953C33.5367 0.66666 34.8463 1.25583 35.7951 2.20487C36.7442 3.15396 37.3333 4.46324 37.3333 5.90464V10.5035C37.3333 10.9855 36.942 11.3765 36.4604 11.3765C35.9784 11.3765 35.5874 10.9852 35.5874 10.5035V5.90464C35.5874 4.94519 35.1946 4.07226 34.5607 3.43925C33.9277 2.80623 33.0548 2.41252 32.0953 2.41252H27.3993ZM35.5869 27.5778C35.5869 27.0958 35.9781 26.7049 36.4598 26.7049C36.9418 26.7049 37.3327 27.0961 37.3327 27.5778V32.0948C37.3327 33.5362 36.7436 34.8458 35.7945 35.7946C34.8454 36.7437 33.5362 37.3328 32.0948 37.3328H27.3665C26.8845 37.3328 26.4935 36.9415 26.4935 36.4598C26.4935 35.9778 26.8848 35.5869 27.3665 35.5869H32.0948C33.0542 35.5869 33.9271 35.1941 34.5602 34.5602C35.1932 33.9272 35.5869 33.0542 35.5869 32.0948V27.5778ZM10.413 35.5869C10.895 35.5869 11.2859 35.9782 11.2859 36.4598C11.2859 36.9418 10.8947 37.3328 10.413 37.3328H5.90484C4.46344 37.3328 3.15385 36.7436 2.20507 35.7946C1.25599 34.8455 0.66686 33.5362 0.66686 32.0948V27.5778C0.66686 27.0958 1.05812 26.7049 1.53979 26.7049C2.02179 26.7049 2.41272 27.0961 2.41272 27.5778V32.0948C2.41272 33.0542 2.80551 33.9272 3.43945 34.5602C4.07247 35.1932 4.94539 35.5869 5.90484 35.5869H10.413ZM2.41249 10.4294C2.41249 10.9114 2.02123 11.3023 1.53956 11.3023C1.05756 11.3023 0.666626 10.9111 0.666626 10.4294V5.90449C0.666626 4.46309 1.2558 3.15349 2.20484 2.20472C3.15393 1.25563 4.46321 0.666504 5.90461 0.666504H10.5465C11.0284 0.666504 11.4194 1.05776 11.4194 1.53944C11.4194 2.02143 11.0281 2.41237 10.5465 2.41237H5.90461C4.94516 2.41237 4.07222 2.80515 3.43921 3.43909C2.80619 4.07211 2.41249 4.94503 2.41249 5.90449V10.4294ZM11.4692 11.5502C11.911 11.5502 12.2733 11.9116 12.2733 12.3543V14.9175C12.2733 15.3593 11.9119 15.7216 11.4692 15.7216C11.0274 15.7216 10.6651 15.3601 10.6651 14.9175V12.3543C10.6651 11.9125 11.0265 11.5502 11.4692 11.5502ZM18.7274 12.5246C18.7292 12.0444 19.1202 11.6568 19.6003 11.6586C20.0805 11.6605 20.4681 12.0514 20.4663 12.5316L20.4157 19.7061C20.4124 20.2298 20.3868 20.9465 20.0631 21.5936C19.6853 22.3487 18.9883 22.9241 17.6867 22.8891C17.2065 22.8779 16.8259 22.4796 16.8372 21.9985C16.8485 21.5183 17.2467 21.1377 17.7278 21.149C18.1897 21.1612 18.4096 21.0129 18.5082 20.8156C18.6611 20.5099 18.6742 20.0447 18.6766 19.6991L18.7272 12.5246L18.7274 12.5246ZM12.2916 26.4732C12.0069 26.0856 12.091 25.54 12.4792 25.2553C12.8668 24.9706 13.4124 25.0547 13.6971 25.4429C13.864 25.6706 14.0594 25.8786 14.2777 26.0661C15.3447 26.983 16.9639 27.4604 18.6455 27.4805C20.3436 27.5006 22.0773 27.0527 23.35 26.1204C23.6633 25.8908 23.9462 25.6332 24.1916 25.3479C24.504 24.9822 25.0542 24.9402 25.419 25.2526C25.7847 25.565 25.8267 26.1152 25.5143 26.48C25.1772 26.8718 24.7957 27.2202 24.3795 27.5249C22.794 28.686 20.676 29.2441 18.6245 29.2193C16.5555 29.195 14.5274 28.5778 13.1453 27.3894C12.8241 27.1135 12.5369 26.8072 12.2915 26.4726L12.2916 26.4732ZM26.4087 11.5502C26.8505 11.5502 27.2128 11.9116 27.2128 12.3543V14.9175C27.2128 15.3593 26.8513 15.7216 26.4087 15.7216C25.9669 15.7216 25.6046 15.3601 25.6046 14.9175V12.3543C25.6046 11.9125 25.966 11.5502 26.4087 11.5502Z" fill="#EB0A1E"/>
</svg>
