<svg width="24" height="25" viewBox="0 0 24 25" fill="none" xmlns="http://www.w3.org/2000/svg">
<path d="M23 5.28571C23 5.49407 22.9172 5.69401 22.7699 5.84133C22.6226 5.98865 22.4226 6.07143 22.2143 6.07143H1.7857C1.50492 6.07143 1.24554 5.92165 1.10523 5.67857C0.964923 5.43549 0.964923 5.13594 1.10523 4.89286C1.24554 4.64978 1.50492 4.5 1.7857 4.5H22.2143C22.4226 4.5 22.6226 4.58278 22.7699 4.7301C22.9172 4.87742 23 5.07736 23 5.28571ZM19.0714 11.5714H4.92856C4.64777 11.5714 4.38839 11.7212 4.24809 11.9643C4.10778 12.2074 4.10778 12.5069 4.24809 12.75C4.38839 12.9931 4.64778 13.1429 4.92856 13.1429H19.0714C19.3522 13.1429 19.6116 12.9931 19.7519 12.75C19.8922 12.5069 19.8922 12.2074 19.7519 11.9643C19.6116 11.7212 19.3522 11.5714 19.0714 11.5714ZM16.7143 18.6429H7.28571C7.00492 18.6429 6.74554 18.7926 6.60523 19.0357C6.46493 19.2788 6.46493 19.5784 6.60523 19.8214C6.74554 20.0645 7.00493 20.2143 7.28571 20.2143H16.7143C16.9951 20.2143 17.2544 20.0645 17.3948 19.8214C17.5351 19.5784 17.5351 19.2788 17.3948 19.0357C17.2544 18.7926 16.9951 18.6429 16.7143 18.6429Z" fill="#101010"/>
</svg>
