<svg width="28" height="27" viewBox="0 0 28 27" fill="none" xmlns="http://www.w3.org/2000/svg">
<path d="M13.398 2.13038L3.53435 9.79704C3.37965 9.91625 3.28511 10.1103 3.28577 10.3062V24.3612C3.28577 24.6956 3.58895 25 3.92208 25H10.6039C10.9371 25 11.2402 24.6956 11.2402 24.3612V19.8888C11.2402 18.4621 12.3644 17.3332 13.7858 17.3332C15.2069 17.3332 16.3313 18.4618 16.3313 19.8888V24.3612C16.3313 24.6956 16.6345 25 16.9676 25H23.6495C23.9826 25 24.2858 24.6956 24.2858 24.3612V10.3062C24.2858 10.1103 24.1919 9.91647 24.0372 9.79704L14.1735 2.13038C13.9358 1.94343 13.604 1.97017 13.3978 2.13038H13.398ZM13.7858 3.43816L23.0131 10.6154V23.7223H17.604V19.889C17.604 17.7764 15.8902 16.0557 13.7859 16.0557C11.6816 16.0557 9.96775 17.7764 9.96775 19.889V23.7223H4.55869V10.6154L13.7858 3.43816Z" fill="white"/>
</svg>
