<svg width="22" height="23" viewBox="0 0 22 23" fill="none" xmlns="http://www.w3.org/2000/svg">
<path d="M16.6146 10.2395H5.90104V7.71861C5.90104 4.93944 8.16344 2.67681 10.9428 2.67681C13.722 2.67681 15.9846 4.93921 15.9846 7.71861C15.9846 8.06524 16.2651 8.34876 16.6148 8.34876C16.9645 8.34876 17.2449 8.06522 17.2449 7.71861C17.2449 4.24289 14.4186 1.4165 10.9428 1.4165C7.46711 1.4165 4.64073 4.24289 4.64073 7.71861V10.2395C4.64073 10.2679 4.65326 10.2962 4.65656 10.3246C3.56303 10.5987 2.75 11.5818 2.75 12.7602V19.0623C2.75 20.4518 3.88128 21.5832 5.2709 21.5832H16.6147C18.0042 21.5832 19.1356 20.4519 19.1356 19.0623V12.7602C19.1356 11.3706 18.0043 10.2395 16.6147 10.2395L16.6146 10.2395ZM17.8749 19.0625C17.8749 19.7588 17.3109 20.3228 16.6146 20.3228L5.27083 20.323C4.5745 20.323 4.01052 19.759 4.01052 19.0627V12.7606C4.01052 12.0642 4.5745 11.5003 5.27083 11.5003H16.6146C17.3109 11.5003 17.8749 12.0642 17.8749 12.7606V19.0625ZM12.8334 15.2812C12.8334 15.6309 12.5529 15.9114 12.2032 15.9114H11.573V17.8022C11.573 18.1518 11.2926 18.4323 10.9429 18.4323C10.5932 18.4323 10.3127 18.1518 10.3127 17.8022V15.9114H9.68259C9.33289 15.9114 9.05243 15.6309 9.05243 15.2812C9.05243 14.9316 9.3329 14.6511 9.68259 14.6511H12.2035C12.553 14.6511 12.8334 14.9316 12.8334 15.2812H12.8334Z" fill="black"/>
</svg>
