<svg width="22" height="22" viewBox="0 0 22 22" fill="none" xmlns="http://www.w3.org/2000/svg">
<path d="M10.9087 21.0832L10.5744 20.8603C10.2959 20.6932 3.6665 16.1251 3.6665 8.15868C3.6665 4.14763 6.89763 0.916504 10.9087 0.916504C14.9197 0.916504 18.1509 4.14763 18.1509 8.15868C18.1509 16.1247 11.5218 20.6935 11.2429 20.8603L10.9087 21.0832ZM10.9087 2.03068C7.51043 2.03068 4.78068 4.76043 4.78068 8.15868C4.78068 14.5649 9.62737 18.7434 10.9087 19.7462C12.19 18.7434 17.0367 14.5652 17.0367 8.15868C17.0367 4.76043 14.3069 2.03068 10.9087 2.03068Z" fill="#808080"/>
<path d="M10.9085 11.5015C9.07006 11.5015 7.56592 9.99735 7.56592 8.15895C7.56592 6.32055 9.07006 4.81641 10.9085 4.81641C12.7469 4.81641 14.251 6.32055 14.251 8.15895C14.251 9.99735 12.7469 11.5015 10.9085 11.5015ZM10.9085 5.93059C9.68286 5.93059 8.6801 6.93335 8.6801 8.15895C8.6801 9.38455 9.68286 10.3873 10.9085 10.3873C12.1341 10.3873 13.1368 9.38455 13.1368 8.15895C13.1368 6.93335 12.1341 5.93059 10.9085 5.93059Z" fill="#808080"/>
</svg>
