<svg width="227" height="160" viewBox="0 0 227 160" fill="none" xmlns="http://www.w3.org/2000/svg">
<g clip-path="url(#clip0_3121_6578)">
<path opacity="0.1" d="M17.3024 67.3099C22.0366 78.0029 15.9961 90.3202 8.89697 99.6047C6.51621 102.712 3.89918 105.966 3.56523 109.877C3.16768 114.648 6.39807 119.035 10.2327 121.902C17.2228 127.127 26.7732 128.742 35.0922 126.107C42.2823 123.835 48.3273 118.685 55.5787 116.609C67.7142 113.135 80.5676 118.894 90.9517 126.066C98.3007 131.141 106.172 137.311 115.032 136.227C121.27 135.464 126.563 131.086 130.153 125.93C131.886 123.431 133.394 120.652 135.921 118.971C137.422 117.972 139.185 117.442 140.95 117.065C157.057 113.624 174.147 122.024 190.04 117.704C200.774 114.784 209.334 106.3 214.654 96.5334C219.974 86.7672 222.46 75.7357 224.529 64.8064C225.999 57.0394 227.219 48.659 223.848 41.5122C220.272 33.9519 211.996 29.3698 203.679 28.5134C195.362 27.6569 187.018 30.0309 179.356 33.3794C169.781 37.5662 160.396 43.4272 149.944 43.4477C142.827 43.4613 136.041 40.7216 129.235 38.6475C117.835 35.165 106.022 33.4339 94.2253 31.8369C82.9371 30.308 71.5398 28.8836 60.1835 29.7923C52.1484 30.4307 45.0538 33.5021 37.2572 34.9219C32.1753 35.8488 27.0685 35.1491 22.0821 36.7188C15.9484 38.6384 9.62392 43.0933 9.28544 50.1016C8.96512 56.7645 14.7898 61.6329 17.3024 67.3099Z" fill="#099EC6"/>
<g opacity="0.5">
<path d="M159.574 42.6412C158.438 42.9683 157.027 43.8134 156.337 46.1328C154.973 50.6762 158.127 53.784 157.093 58.5023C156.81 59.7568 156.269 60.9384 155.503 61.9713C154.237 63.6864 152.861 64.4997 151.53 65.7014C149.837 67.2363 148.625 69.2275 148.038 71.4353C147.395 73.8721 147.341 76.4271 147.881 78.8888C148.356 80.947 149.165 82.4441 149.869 84.1138C150.746 86.2443 151.43 88.4492 151.913 90.7018C152.182 91.7966 152.334 92.9167 152.368 94.0435C152.391 95.4588 152.17 96.9967 151.954 98.5142L150.03 111.942C149.773 113.73 149.515 115.548 149.505 117.249C149.492 119.214 149.808 120.902 150.121 122.549C150.803 126.102 151.523 129.789 153.074 131.663C154.626 133.537 157.257 132.888 158.876 129.062C160.417 125.427 160.448 120.566 161.807 116.677C163.947 110.543 168.204 109.725 170.564 103.88C172.836 98.2734 172.136 91.3856 173.29 84.9975C174.113 80.4154 175.864 76.2354 176.902 71.7079C178.395 65.1858 178.247 58.416 177.055 53.4046C175.862 48.3932 173.722 44.9515 171.359 42.3413C170.358 41.235 169.288 40.2513 168.029 40.1536C166.691 40.0514 165.53 41.7438 164.201 42.2413C162.661 42.8161 161.125 42.2004 159.574 42.6412Z" fill="#099EC6"/>
<path d="M166.818 40.4717C166.818 40.4717 164.547 98.4643 155.021 132.663" stroke="#535461" stroke-width="2" stroke-miterlimit="10"/>
<path d="M156.277 46.4167C156.277 46.4167 166.45 55.6877 164.531 73.3526" stroke="#535461" stroke-width="2" stroke-miterlimit="10"/>
<path d="M147.731 72.7961C147.731 72.7961 164.451 76.1583 163.211 86.1584" stroke="#535461" stroke-width="2" stroke-miterlimit="10"/>
<path d="M177.075 53.2661C177.075 53.2661 170.312 59.1885 164.283 75.9629" stroke="#535461" stroke-width="2" stroke-miterlimit="10"/>
<path d="M170.462 103.964C170.462 103.964 165.846 107.599 162.141 94.9204" stroke="#535461" stroke-width="2" stroke-miterlimit="10"/>
<path d="M150.548 111.359C150.548 111.359 159.962 110.13 160.83 104.232" stroke="#535461" stroke-width="2" stroke-miterlimit="10"/>
</g>
<path d="M182.33 3.74477C179.999 4.09007 177.195 5.16914 176.044 8.50177C173.783 15.0352 180.658 19.9808 179.074 26.8073C178.599 28.8519 177.429 30.5148 176.196 31.7279C173.779 34.1041 171.028 35.1355 168.415 36.7484C165.803 38.3613 163.09 40.892 161.866 44.779C160.687 48.5182 161.198 52.6505 162.422 55.7378C163.647 58.825 165.501 61.1263 167.157 63.6661C169.173 66.7928 170.86 70.1205 172.189 73.5958C172.782 75.1247 173.324 76.7376 173.518 78.5686C173.731 80.6563 173.461 82.9031 173.193 85.1021L170.803 104.639C170.485 107.24 170.164 109.887 170.348 112.392C170.555 115.284 171.409 117.806 172.252 120.268C174.07 125.58 176.014 131.098 179.438 134.04C182.861 136.981 188.241 136.339 191.135 130.896C193.89 125.714 193.384 118.569 195.733 113.003C199.436 104.232 208.148 103.524 212.339 95.1976C216.362 87.2103 214.111 76.992 215.726 67.7098C216.885 61.0581 220.018 55.113 221.633 48.5682C223.95 39.1383 222.844 29.154 219.777 21.6323C216.71 14.1107 211.876 8.788 206.678 4.66482C204.474 2.91786 202.134 1.33901 199.527 1.04823C196.746 0.739279 194.529 3.07916 191.85 3.66753C188.738 4.36495 185.49 3.2768 182.33 3.74477Z" fill="#099EC6"/>
<path d="M197.064 1.40479C197.064 1.40479 199.256 86.54 183.579 135.771" stroke="#535461" stroke-width="2" stroke-miterlimit="10"/>
<path d="M175.953 8.91064C175.953 8.91064 198.129 23.7723 196.23 49.5564" stroke="#535461" stroke-width="2" stroke-miterlimit="10"/>
<path d="M161.396 46.7461C161.396 46.7461 196.398 53.6794 195.017 68.2571" stroke="#535461" stroke-width="2" stroke-miterlimit="10"/>
<path d="M219.809 21.4641C219.809 21.4641 206.505 29.3833 196.026 53.3705" stroke="#535461" stroke-width="2" stroke-miterlimit="10"/>
<path d="M212.135 95.3385C212.135 95.3385 203.011 100.141 193.84 81.0266" stroke="#535461" stroke-width="2" stroke-miterlimit="10"/>
<path d="M171.782 103.869C171.782 103.869 191.121 103.173 192.228 94.5955" stroke="#535461" stroke-width="2" stroke-miterlimit="10"/>
<path opacity="0.1" d="M111.94 143.195C165.597 143.195 209.095 139.016 209.095 133.862C209.095 128.708 165.597 124.53 111.94 124.53C58.283 124.53 14.7853 128.708 14.7853 133.862C14.7853 139.016 58.283 143.195 111.94 143.195Z" fill="#099EC6"/>
<path d="M16.3096 122.754C16.3096 122.754 18.2133 125.253 15.4305 129.001C12.6476 132.749 10.3532 135.934 11.2914 138.276C11.2914 138.276 15.4895 131.295 18.9062 131.198C22.3229 131.1 20.0693 126.952 16.3096 122.754Z" fill="#099EC6"/>
<path opacity="0.1" d="M16.3096 122.754C16.4755 122.994 16.6063 123.258 16.6981 123.535C20.033 127.452 21.8072 131.107 18.6041 131.2C15.619 131.286 12.0388 136.623 11.1801 137.972C11.2084 138.076 11.2425 138.178 11.2823 138.279C11.2823 138.279 15.4804 131.298 18.8971 131.2C22.3138 131.102 20.0693 126.952 16.3096 122.754Z" fill="black"/>
<path d="M19.8489 125.927C19.8489 126.804 19.7513 127.518 19.6218 127.518C19.4923 127.518 19.3946 126.806 19.3946 125.927C19.3946 125.048 19.5173 125.473 19.6377 125.473C19.7581 125.473 19.8489 125.05 19.8489 125.927Z" fill="#FFD037"/>
<path d="M21.0598 126.972C20.2897 127.392 19.6195 127.654 19.5627 127.538C19.5059 127.422 20.0807 127.004 20.8508 126.586C21.6209 126.168 21.3165 126.472 21.3755 126.586C21.4346 126.7 21.8322 126.55 21.0598 126.972Z" fill="#FFD037"/>
<path d="M6.25269 122.754C6.25269 122.754 4.34898 125.253 7.13184 129.001C9.91471 132.749 12.2001 135.934 11.2914 138.276C11.2914 138.276 7.09322 131.295 3.67655 131.198C0.259873 131.1 2.49525 126.952 6.25269 122.754Z" fill="#099EC6"/>
<path opacity="0.1" d="M6.25267 122.754C6.08678 122.994 5.95598 123.258 5.86421 123.535C2.52931 127.452 0.755095 131.107 3.95823 131.2C6.94328 131.286 10.5235 136.623 11.3822 137.972C11.3539 138.076 11.3198 138.178 11.28 138.279C11.28 138.279 7.08185 131.298 3.66518 131.2C0.2485 131.102 2.49524 126.952 6.25267 122.754Z" fill="black"/>
<path d="M2.71558 125.927C2.71558 126.804 2.81326 127.518 2.94275 127.518C3.07224 127.518 3.16992 126.806 3.16992 125.927C3.16992 125.048 3.04725 125.473 2.92685 125.473C2.80645 125.473 2.71558 125.05 2.71558 125.927Z" fill="#FFD037"/>
<path d="M1.50022 126.972C2.27034 127.392 2.9405 127.654 2.99729 127.538C3.05408 127.422 2.47934 127.004 1.70922 126.586C0.939107 126.168 1.24352 126.472 1.18445 126.586C1.12539 126.7 0.730108 126.55 1.50022 126.972Z" fill="#FFD037"/>
<path d="M3.31989 137.951C3.31989 137.951 8.64254 137.788 10.2464 136.645C11.8502 135.502 18.4246 134.146 18.8312 135.964C19.2379 137.781 26.83 145.076 20.8213 145.123C14.8125 145.171 6.85923 144.187 5.25767 143.213C3.6561 142.238 3.31989 137.951 3.31989 137.951Z" fill="#A8A8A8"/>
<path opacity="0.2" d="M20.9303 144.496C14.9216 144.544 6.96826 143.56 5.3667 142.586C4.14678 141.843 3.66063 139.178 3.49934 137.949H3.32214C3.32214 137.949 3.65836 142.243 5.25993 143.217C6.86149 144.192 14.8148 145.178 20.8326 145.13C22.5682 145.117 23.1657 144.499 23.1339 143.585C22.8772 144.137 22.2206 144.483 20.9303 144.496Z" fill="black"/>
<path d="M72.5984 103.476C72.5984 103.476 99.2344 86.4582 117.649 86.4582C117.649 86.4582 139.819 83.0051 163.933 88.8412C188.048 94.6773 196.955 102.244 203.641 100.023L175.553 100.845L72.5984 103.476Z" fill="#8CD0F3"/>
<path opacity="0.1" d="M72.5984 103.476C72.5984 103.476 99.2344 86.4582 117.649 86.4582C117.649 86.4582 139.819 83.0051 163.933 88.8412C188.048 94.6773 196.955 102.244 203.641 100.023L175.553 100.845L72.5984 103.476Z" fill="#8CD0F3"/>
<path d="M198.145 129.521H35.6988L40.165 111.627L67.7892 104.282L198.145 107.708V129.521Z" fill="#121C3F"/>
<path d="M206.696 118.34V124.051C206.696 124.051 201.873 127.549 201.435 130.289C201.435 130.289 194.529 132.043 192.557 132.043C192.377 132.043 192.182 132.043 191.978 132.063C192.286 131.236 192.526 130.386 192.698 129.521C193.181 127.093 193.121 124.587 192.519 122.185C191.918 119.783 190.792 117.545 189.221 115.631C187.651 113.716 185.675 112.174 183.437 111.116C181.199 110.057 178.754 109.508 176.278 109.508C173.802 109.508 171.357 110.057 169.118 111.116C166.88 112.174 164.905 113.716 163.334 115.631C161.764 117.545 160.637 119.783 160.036 122.185C159.435 124.587 159.374 127.093 159.858 129.521C160.09 130.692 160.447 131.834 160.923 132.929H151.559C151.559 132.929 151.473 132.958 151.332 133.019C150.83 133.247 149.646 133.846 149.476 134.789H71.8715L70.2813 134.775C70.6193 134.208 70.9227 133.621 71.19 133.017C71.6886 131.899 72.059 130.727 72.294 129.526C72.7559 127.23 72.7318 124.864 72.2232 122.579C71.7146 120.294 70.7327 118.141 69.341 116.258C67.9493 114.376 66.1785 112.806 64.1429 111.649C62.1073 110.493 59.852 109.776 57.5224 109.545C55.1928 109.314 52.8405 109.573 50.6173 110.307C48.3941 111.04 46.3493 112.231 44.6146 113.804C42.88 115.376 41.494 117.294 40.5461 119.434C39.5981 121.575 39.1092 123.89 39.1109 126.232C39.1109 127.335 39.2189 128.436 39.4335 129.519C39.7996 131.352 40.4708 133.11 41.419 134.721C40.3104 134.451 37.891 133.683 37.891 133.683C37.891 133.683 27.5887 132.588 24.9581 130.275L25.3556 130L27.0412 128.849L26.2734 125.895C26.1807 125.771 26.1044 125.635 26.0462 125.491C25.8418 124.998 25.6623 124.082 26.3847 122.933C27.4797 121.179 26.9322 114.932 26.9322 114.932C26.9322 114.932 41.8393 104.63 71.2149 102.326C71.2149 102.326 71.9169 102.871 73.3663 102.985C74.3477 103.064 75.6721 102.944 77.3554 102.326C77.3554 102.326 79.7657 103.421 90.0771 97.5033C90.0771 97.5033 107.617 85.445 130.636 86.5445C130.636 86.5445 154.312 85.1178 174.481 92.9053C183.172 96.2584 189.785 98.0462 194.499 98.9913C198.852 99.8659 201.585 100.027 202.836 100.041H202.864C203.273 100.041 203.516 100.041 203.602 100.041H203.638C203.638 100.041 203.638 102.651 203.777 105.734V105.75C203.827 106.822 203.895 107.951 203.99 109.048V109.116C204.254 112.172 204.708 114.948 205.497 115.498L206.696 118.34Z" fill="#2856B8"/>
<path d="M29.3016 114.682C29.3016 114.682 35.9055 109.53 44.1269 110.627C44.1269 110.627 36.6461 116.547 33.2749 116.163L32.7001 115.67L29.2925 115.861C29.2925 115.861 28.7837 115.066 29.3016 114.682Z" fill="#8CD0F3"/>
<path opacity="0.2" d="M35.7124 123.596V126.638C35.7124 126.638 35.4852 129.544 32.8614 129.653L25.3647 130.023L27.048 128.871L26.2802 125.918C26.1871 125.795 26.1107 125.659 26.053 125.516C26.7345 124.889 28.3406 123.83 31.6074 123.603L35.7124 123.596Z" fill="white"/>
<path opacity="0.2" d="M70.597 110.848L76.3513 110.62C76.3513 110.62 74.0228 112.456 72.3781 112.622C70.7333 112.788 70.597 110.848 70.597 110.848Z" fill="white"/>
<path opacity="0.2" d="M82.7099 128.303C82.7099 128.303 134.748 121.068 147.327 123.369C147.327 123.369 151.025 123.617 152.425 125.096C153.824 126.575 152.425 125.616 152.425 125.616L82.7099 128.303Z" fill="white"/>
<path opacity="0.5" d="M111.84 107.996C111.84 107.996 112.499 106.763 113.567 106.736L120.5 106.379C120.5 106.379 120.391 107.338 119.157 107.694L111.84 107.996Z" fill="#18218A"/>
<path opacity="0.5" d="M151.959 105.913C151.959 105.913 152.618 104.68 153.685 104.652L160.619 104.287C160.619 104.287 160.51 105.245 159.276 105.602L151.959 105.913Z" fill="#18218A"/>
<path d="M128.285 89.0116L122.965 102.965L103.782 102.985H98.8437H94.5478H90.8336H86.6263C86.6263 102.985 89.1889 101.104 93.3166 98.7073C94.6796 97.9122 96.2267 97.0626 97.9055 96.2084C99.4502 95.4179 101.113 94.6182 102.86 93.8595C104.223 93.2597 105.659 92.6827 107.126 92.1443C113.78 89.7113 121.259 88.0779 128.285 89.0116Z" fill="#8CD0F3"/>
<path d="M158.427 99.2004C158.427 99.2004 150.412 100.388 142.763 101.268C139.839 101.604 136.97 101.895 134.621 102.056L134.294 102.079C133.385 102.138 132.542 102.176 131.827 102.19C130.691 102.21 129.841 102.16 129.417 102.024L131.627 88.6777C131.627 88.6777 134.353 88.7073 138.385 88.9049L139.267 88.9526C140.105 89.0003 140.989 89.0548 141.911 89.1184C143.229 89.2093 144.617 89.3184 146.048 89.4501C152.958 90.0839 160.787 91.2221 165.744 93.2712C176.291 97.6374 158.427 99.2004 158.427 99.2004Z" fill="#8CD0F3"/>
<path d="M195.365 105.913V109.475C195.365 109.475 189.61 109.557 190.844 108.408C191.642 107.644 192.367 106.808 193.009 105.909L195.365 105.913Z" fill="#8CD0F3"/>
<path d="M203.986 109.112L199.313 109.478V105.195C199.313 105.195 201.478 102.154 203.643 105.525L203.768 105.722L203.986 109.112Z" fill="#8CD0F3"/>
<path d="M55.8694 139.605C63.2555 139.605 69.2431 133.618 69.2431 126.232C69.2431 118.845 63.2555 112.858 55.8694 112.858C48.4834 112.858 42.4958 118.845 42.4958 126.232C42.4958 133.618 48.4834 139.605 55.8694 139.605Z" fill="#182A7C"/>
<path d="M66.5965 126.22C66.6014 128.98 65.5461 131.636 63.6487 133.64C61.7513 135.644 59.1567 136.842 56.4009 136.988C53.6451 137.133 50.9387 136.215 48.8407 134.422C46.7428 132.629 45.4135 130.099 45.1276 127.354C44.8417 124.61 45.6209 121.86 47.3044 119.673C48.9878 117.487 51.4469 116.03 54.1735 115.605C56.9001 115.179 59.686 115.817 61.9557 117.387C64.2253 118.957 65.8054 121.338 66.3694 124.04C66.519 124.757 66.5951 125.488 66.5965 126.22Z" fill="#3F8FFE"/>
<path opacity="0.5" d="M55.8536 135.462C60.9461 135.462 65.0745 131.323 65.0745 126.218C65.0745 121.113 60.9461 116.974 55.8536 116.974C50.761 116.974 46.6326 121.113 46.6326 126.218C46.6326 131.323 50.761 135.462 55.8536 135.462Z" fill="#18218A"/>
<path d="M58.9386 115.9V116.29L55.8695 126.452L53.4069 115.732C55.2341 115.306 57.1407 115.364 58.9386 115.9Z" fill="#3F8FFE"/>
<path d="M58.9158 136.545C57.1579 137.066 55.2964 137.13 53.5068 136.731L55.8672 126.452L58.9158 136.545Z" fill="#3F8FFE"/>
<path d="M66.5965 126.22C66.5981 127.341 66.4249 128.456 66.0831 129.523H66.04L55.8785 126.454L66.3875 124.042C66.5305 124.759 66.6005 125.489 66.5965 126.22Z" fill="#3F8FFE"/>
<path d="M55.8695 126.452L45.708 129.521H45.6285C45.0626 127.747 44.9617 125.857 45.3355 124.032L55.8695 126.452Z" fill="#3F8FFE"/>
<path d="M55.8535 127.397C56.5047 127.397 57.0325 126.869 57.0325 126.218C57.0325 125.567 56.5047 125.039 55.8535 125.039C55.2024 125.039 54.6745 125.567 54.6745 126.218C54.6745 126.869 55.2024 127.397 55.8535 127.397Z" fill="#182A7C"/>
<path d="M176.196 139.605C183.582 139.605 189.57 133.618 189.57 126.232C189.57 118.845 183.582 112.858 176.196 112.858C168.81 112.858 162.822 118.845 162.822 126.232C162.822 133.618 168.81 139.605 176.196 139.605Z" fill="#182A7C"/>
<path d="M186.925 126.22C186.93 128.98 185.875 131.636 183.977 133.64C182.08 135.644 179.485 136.842 176.73 136.988C173.974 137.133 171.267 136.215 169.17 134.422C167.072 132.629 165.742 130.099 165.456 127.354C165.17 124.61 165.95 121.86 167.633 119.673C169.317 117.487 171.776 116.03 174.502 115.605C177.229 115.179 180.015 115.817 182.284 117.387C184.554 118.957 186.134 121.338 186.698 124.04C186.848 124.757 186.924 125.488 186.925 126.22Z" fill="#3F8FFE"/>
<path opacity="0.5" d="M176.182 135.462C181.275 135.462 185.403 131.323 185.403 126.218C185.403 121.113 181.275 116.974 176.182 116.974C171.09 116.974 166.961 121.113 166.961 126.218C166.961 131.323 171.09 135.462 176.182 135.462Z" fill="#18218A"/>
<path d="M179.265 115.9V116.29L176.196 126.452L173.733 115.732C175.561 115.306 177.467 115.364 179.265 115.9Z" fill="#3F8FFE"/>
<path d="M179.245 136.545C177.487 137.066 175.625 137.13 173.836 136.731L176.196 126.452L179.245 136.545Z" fill="#3F8FFE"/>
<path d="M186.925 126.22C186.927 127.341 186.754 128.456 186.412 129.523H186.36L176.196 126.452L186.705 124.039C186.852 124.757 186.926 125.488 186.925 126.22Z" fill="#3F8FFE"/>
<path d="M176.196 126.452L166.035 129.521H165.955C165.389 127.747 165.288 125.857 165.662 124.032L176.196 126.452Z" fill="#3F8FFE"/>
<path d="M176.182 127.397C176.833 127.397 177.361 126.869 177.361 126.218C177.361 125.567 176.833 125.039 176.182 125.039C175.531 125.039 175.003 125.567 175.003 126.218C175.003 126.869 175.531 127.397 176.182 127.397Z" fill="#182A7C"/>
<path opacity="0.2" d="M97.9077 96.2222L94.5478 102.994H90.8336L93.3166 98.7211C94.6864 97.926 96.2289 97.0786 97.9077 96.2222Z" fill="white"/>
<path opacity="0.2" d="M107.126 92.158L103.78 102.987H98.8414L102.862 93.8686C104.235 93.2734 105.661 92.7009 107.126 92.158Z" fill="white"/>
<path opacity="0.2" d="M141.916 89.1297L134.626 102.058L134.299 102.081C133.39 102.14 132.547 102.179 131.831 102.192L138.39 88.9185L139.271 88.9662C140.098 89.0116 140.989 89.0661 141.916 89.1297Z" fill="white"/>
<path opacity="0.2" d="M86.7535 102.949L82.5917 131.616L117.351 130.855L123.058 103.074L86.7535 102.949Z" stroke="white" stroke-miterlimit="10"/>
<path opacity="0.5" d="M151.334 133.011C150.832 133.238 149.649 133.837 149.478 134.78H71.8715L70.2812 134.767C70.6192 134.199 70.9227 133.612 71.1899 133.008L151.334 133.011Z" fill="#18218A"/>
<path d="M84.2388 153.726C84.7681 153.233 85.2656 152.652 85.4201 151.945C85.5746 151.239 85.2724 150.389 84.5954 150.128C83.839 149.837 83.0279 150.355 82.4146 150.894C81.8012 151.432 81.097 152.029 80.2951 151.916C80.7081 151.541 81.017 151.066 81.1918 150.537C81.3666 150.007 81.4012 149.441 81.2924 148.894C81.2572 148.669 81.1614 148.457 81.0152 148.281C80.5949 147.827 79.8316 148.024 79.3296 148.379C77.7394 149.515 77.285 151.68 77.2737 153.638C77.1124 152.931 77.2487 152.195 77.2441 151.471C77.2396 150.746 77.042 149.944 76.4309 149.553C76.0503 149.349 75.6224 149.248 75.1905 149.262C74.4704 149.235 73.6684 149.308 73.1778 149.835C72.5667 150.489 72.7234 151.586 73.2573 152.307C73.7911 153.027 74.5976 153.479 75.3404 153.976C75.9368 154.332 76.4454 154.817 76.8284 155.396C76.8738 155.477 76.9111 155.562 76.9397 155.651H81.4514C82.463 155.138 83.4007 154.491 84.2388 153.726Z" fill="#099EC6"/>
<path d="M178.536 157.547C178.952 157.208 179.256 156.75 179.406 156.234C179.519 155.712 179.297 155.087 178.797 154.896C178.238 154.683 177.641 155.069 177.189 155.462C176.737 155.855 176.216 156.3 175.623 156.216C175.928 155.94 176.156 155.589 176.285 155.199C176.414 154.808 176.44 154.391 176.36 153.988C176.334 153.82 176.263 153.663 176.155 153.533C175.844 153.202 175.283 153.345 174.91 153.606C173.729 154.437 173.399 156.041 173.393 157.486C173.275 156.966 173.374 156.423 173.37 155.896C173.365 155.369 173.22 154.76 172.77 154.483C172.491 154.333 172.178 154.259 171.861 154.267C171.33 154.247 170.739 154.301 170.376 154.69C169.921 155.171 170.042 155.982 170.435 156.507C170.828 157.032 171.423 157.37 171.973 157.738C172.413 158 172.789 158.358 173.072 158.785C173.106 158.845 173.133 158.907 173.154 158.972H176.482C177.228 158.592 177.919 158.113 178.536 157.547Z" fill="#099EC6"/>
<path opacity="0.1" d="M118.824 120.948H118.744C118.744 120.948 121.356 120.243 118.824 120.948Z" fill="black"/>
<path opacity="0.1" d="M140.421 134.103V134.489C140.391 134.362 140.391 134.23 140.421 134.103Z" fill="black"/>
<g opacity="0.05">
<path d="M105.659 122.831C105.607 122.974 105.563 123.119 105.527 123.267C105.527 123.267 104.001 132.383 103.09 135.761C103.932 133.019 105.523 123.642 105.659 122.831Z" fill="black"/>
</g>
</g>
<defs>
<clipPath id="clip0_3121_6578">
<rect width="226.065" height="160" fill="white"/>
</clipPath>
</defs>
</svg>
