<svg width="23" height="22" viewBox="0 0 23 22" fill="none" xmlns="http://www.w3.org/2000/svg">
<path d="M17.7167 8.8825L20.2298 4.20443C20.3046 4.06459 20.3007 3.89541 20.2194 3.75878C20.1381 3.62286 19.9904 3.53892 19.8316 3.53892H14.9067L14.9069 1.3674C14.9069 1.11821 14.7046 0.916504 14.4554 0.916504H3.70149C3.4523 0.916504 3.25 1.11879 3.25 1.3674V20.631C3.25 20.8802 3.45228 21.0832 3.70149 21.0832C3.95069 21.0832 4.15297 20.8796 4.15297 20.631L4.15312 11.6038H8.62636V13.7754C8.62636 14.0245 8.82864 14.2262 9.07784 14.2262H19.8314C19.9901 14.2262 20.1378 14.1423 20.2191 14.0064C20.3004 13.8692 20.3044 13.7 20.2296 13.5601L17.7167 8.8825ZM4.15317 1.8193H14.0037V10.7007H4.15317V1.8193ZM9.53013 13.3226V11.6032H14.4554C14.7052 11.6032 14.9069 11.4009 14.9069 11.1517V4.44238H19.0772L16.8054 8.66915C16.7346 8.80246 16.7346 8.96248 16.8054 9.09592L19.0772 13.3227L9.53013 13.3226Z" fill="#101010"/>
<path d="M3.70149 0.916504C3.4523 0.916504 3.25 1.11879 3.25 1.3674V20.631C3.25 20.8802 3.45228 21.0832 3.70149 21.0832C3.95069 21.0832 4.15297 20.8796 4.15297 20.631L4.15312 11.6038C4.15312 4.63703 4.15312 2.20557 4.15312 1.3674C4.08479 0.916504 3.80609 0.916504 3.70149 0.916504Z" fill="black"/>
</svg>
