<svg width="24" height="23" viewBox="0 0 24 23" fill="none" xmlns="http://www.w3.org/2000/svg">
<path d="M8.80529 18.6921H9.93279C9.93279 19.8892 10.8582 20.8595 11.9998 20.8595C13.1415 20.8595 14.0669 19.8892 14.0669 18.6921H15.1944C15.1944 20.542 13.7641 22.0418 11.9998 22.0418C10.2355 22.0418 8.80529 20.5421 8.80529 18.6921ZM21.5829 16.1299V16.5254C21.5829 17.2893 20.9941 17.904 20.2669 17.904H3.73257C3.00564 17.904 2.41663 17.2872 2.41663 16.5254V16.1299C2.41663 14.7832 3.41045 13.679 4.67163 13.5771V8.64292C4.67163 4.39819 7.95213 0.958496 12 0.958496C16.0478 0.958496 19.3283 4.39868 19.3283 8.64292V13.5768C20.5916 13.6788 21.5833 14.7819 21.5833 16.1299H21.5829ZM19.1366 14.7513C18.6196 14.7513 18.2005 14.3085 18.2005 13.7692V8.64285C18.2005 5.05179 15.4249 2.141 11.9997 2.141C8.5745 2.141 5.79893 5.05095 5.79893 8.64285V13.7692C5.79893 14.311 5.37741 14.7513 4.86282 14.7513C4.13435 14.7513 3.54399 15.3693 3.54399 16.1299V16.5254C3.54399 16.6338 3.62788 16.7217 3.73248 16.7217H20.2669C20.3725 16.7217 20.4553 16.6354 20.4553 16.5254V16.1299C20.4553 15.3676 19.8671 14.7513 19.1365 14.7513H19.1366Z" fill="white"/>
</svg>
