<svg width="39" height="46" viewBox="0 0 39 46" fill="none" xmlns="http://www.w3.org/2000/svg">
<g clip-path="url(#clip0_2689_8416)">
<path d="M28.125 3.646H38.225V45.498H0.775024V3.646H10.525" stroke="black" stroke-miterlimit="10"/>
<path d="M24.9951 0.501953H14.0051C12.1825 0.501953 10.7051 1.98587 10.7051 3.81636C10.7051 5.64686 12.1825 7.13077 14.0051 7.13077H24.9951C26.8176 7.13077 28.2951 5.64686 28.2951 3.81636C28.2951 1.98587 26.8176 0.501953 24.9951 0.501953Z" stroke="black" stroke-miterlimit="10"/>
<path d="M5.68506 12.5244H33.6151" stroke="black" stroke-miterlimit="10"/>
<path d="M5.68506 17.8477H33.6151" stroke="black" stroke-miterlimit="10"/>
<path d="M29.3451 31.8185H24.6251C23.8294 31.8185 23.0663 31.501 22.5037 30.9359C21.9411 30.3709 21.6251 29.6045 21.6251 28.8054V28.0521C21.6184 27.6522 21.6911 27.255 21.8389 26.8836C21.9867 26.5122 22.2066 26.1741 22.4859 25.889C22.7651 25.6038 23.0981 25.3774 23.4653 25.2228C23.8326 25.0683 24.2268 24.9887 24.6251 24.9888H29.975C30.3733 24.9887 30.7675 25.0683 31.1348 25.2228C31.502 25.3774 31.835 25.6038 32.1142 25.889C32.3935 26.1741 32.6134 26.5122 32.7612 26.8836C32.909 27.255 32.9817 27.6522 32.975 28.0521V29.8198" stroke="black" stroke-miterlimit="10"/>
<path d="M24.915 31.8184H29.985C30.7807 31.8184 31.5437 32.1358 32.1063 32.7009C32.6689 33.2659 32.985 34.0323 32.985 34.8315V35.5847C32.985 36.3839 32.6689 37.1503 32.1063 37.7153C31.5437 38.2804 30.7807 38.5978 29.985 38.5978H24.625C23.8294 38.5978 23.0663 38.2804 22.5037 37.7153C21.9411 37.1503 21.625 36.3839 21.625 35.5847V34.1987" stroke="black" stroke-miterlimit="10"/>
<path d="M27.1951 25.0186V22.3369" stroke="black" stroke-miterlimit="10"/>
<path d="M27.1951 41.2293V38.5376" stroke="black" stroke-miterlimit="10"/>
</g>
<defs>
<clipPath id="clip0_2689_8416">
<rect width="38.45" height="46" fill="white" transform="translate(0.275024)"/>
</clipPath>
</defs>
</svg>
