<svg width="20" height="21" viewBox="0 0 20 21" fill="none" xmlns="http://www.w3.org/2000/svg">
<path d="M8.62603 1.33389C10.6236 1.33389 12.6213 2.09379 14.1407 3.61286C16.9857 6.45782 17.1646 10.9799 14.6815 14.0383L18.9193 18.278H18.9189C19.0755 18.428 19.1648 18.6347 19.167 18.8516C19.1691 19.0686 19.0839 19.2771 18.9306 19.4304C18.7773 19.5841 18.5688 19.669 18.3518 19.6668C18.1349 19.6646 17.9281 19.5753 17.7778 19.4187L13.54 15.1791C10.4817 17.6647 5.95893 17.4858 3.11265 14.6401C0.0744686 11.602 0.0726891 6.65112 3.11119 3.61246C4.63028 2.09337 6.62827 1.3335 8.62587 1.3335L8.62603 1.33389ZM8.62603 2.93672C7.04475 2.93672 5.46347 3.54296 4.25252 4.75393C1.83091 7.17555 1.83269 11.0779 4.25399 13.4992C6.65256 15.8978 10.5007 15.9171 12.9268 13.5639V13.5636C12.966 13.5135 13.011 13.4677 13.0611 13.4282C13.0618 13.4275 13.0629 13.4271 13.064 13.4264C15.4158 11.0004 15.3975 7.15182 12.9993 4.75353C11.7886 3.54286 10.207 2.93631 8.62576 2.93631L8.62603 2.93672Z" fill="black"/>
</svg>
