<svg width="28" height="27" viewBox="0 0 28 27" fill="none" xmlns="http://www.w3.org/2000/svg">
<path fill-rule="evenodd" clip-rule="evenodd" d="M23.1106 10.8929H24.3941C24.8844 10.8929 25.2854 11.2942 25.2795 11.7874V15.2159C25.2795 15.7062 24.8814 16.1073 24.3912 16.1073H23.1076C22.8997 16.8531 22.6026 17.569 22.2222 18.2436L23.1315 19.1528C23.3008 19.3192 23.3929 19.545 23.3929 19.7827C23.3929 20.0233 23.3008 20.2462 23.1315 20.4155L20.701 22.846C20.3535 23.1937 19.786 23.1937 19.4383 22.846L18.532 21.9367C17.8548 22.32 17.1387 22.6172 16.3928 22.8251V24.1086C16.3928 24.5989 15.9918 25 15.4985 25H12.0667C11.5764 25 11.1753 24.6019 11.1753 24.1086V22.8251C10.4296 22.6172 9.71361 22.3201 9.03612 21.9367L8.12985 22.846C7.78231 23.1937 7.21488 23.1937 6.86717 22.846L4.43671 20.4155C4.26738 20.2491 4.17524 20.0233 4.17524 19.7856C4.17524 19.548 4.26738 19.3251 4.43671 19.1558L5.34298 18.2465C4.96263 17.5751 4.66845 16.859 4.45758 16.1102H3.17402C2.68376 16.1102 2.28564 15.7121 2.28564 15.2189V11.7841C2.28564 11.2938 2.68376 10.8927 3.17402 10.8927H4.45758C4.66842 10.1469 4.96259 9.43099 5.34298 8.75643L4.43374 7.84718C4.08602 7.49964 4.08602 6.93221 4.43374 6.5845L6.86419 4.15404C7.21173 3.80633 7.77917 3.80633 8.12688 4.15404L9.03612 5.06329C9.71341 4.67996 10.4295 4.38282 11.1753 4.17491V2.89135C11.1753 2.40107 11.5735 2 12.0667 2L15.4985 2.0002C15.9918 2.0002 16.3928 2.39833 16.3928 2.89155V4.1751C17.1355 4.38302 17.8546 4.68013 18.532 5.06348L19.4383 4.15424C19.7859 3.80652 20.3533 3.80652 20.701 4.15424L23.1315 6.58469C23.3008 6.75404 23.3929 6.97987 23.3929 7.21752C23.3929 7.45517 23.3008 7.67805 23.1315 7.84738L22.2252 8.75662C22.6055 9.42806 22.8997 10.1442 23.1106 10.8929ZM22.2669 15.0379H24.2039L24.2041 11.9715H22.2639L22.1659 11.5554C21.9519 10.6314 21.5894 9.75484 21.0903 8.95568L20.8644 8.5932L22.2401 7.21751L20.0741 5.05147L18.6984 6.42716L18.3359 6.20133C17.5279 5.69612 16.6543 5.33364 15.7361 5.12277L15.3172 5.02472V3.07865H12.2539V5.02472L11.8349 5.12277C10.9198 5.33679 10.0434 5.69925 9.23516 6.20133L8.87268 6.42716L7.49699 5.05147L5.33096 7.21751L6.70665 8.5932L6.48081 8.95568C5.98463 9.75781 5.62215 10.6314 5.40518 11.5554L5.30713 11.9715H3.36695L3.36676 15.0379H5.30693L5.40498 15.4539C5.619 16.3809 5.98149 17.2545 6.48061 18.0537L6.70645 18.4162L5.33076 19.7919L7.49679 21.9579L8.87249 20.5822L9.23497 20.808C10.043 21.3101 10.9166 21.6757 11.8347 21.8866L12.2537 21.9846V23.9307H15.3201V21.9846L15.7391 21.8866C16.6572 21.6726 17.5306 21.3101 18.3389 20.808L18.7014 20.5822L20.0771 21.9579L22.2431 19.7919L20.8674 18.4162L21.0932 18.0537C21.5894 17.2545 21.9519 16.3779 22.1689 15.4539L22.2669 15.0379ZM18.2856 13.5C18.2856 15.9853 16.2709 18 13.7856 18C11.3004 18 9.28564 15.9853 9.28564 13.5C9.28564 11.0147 11.3004 9 13.7856 9C16.2709 9 18.2856 11.0147 18.2856 13.5ZM19.2856 13.5C19.2856 16.5376 16.8232 19 13.7856 19C10.7481 19 8.28564 16.5376 8.28564 13.5C8.28564 10.4624 10.7481 8 13.7856 8C16.8232 8 19.2856 10.4624 19.2856 13.5Z" fill="white"/>
</svg>
