<svg width="18" height="19" viewBox="0 0 18 19" fill="none" xmlns="http://www.w3.org/2000/svg">
<mask id="path-1-inside-1_2689_13143" fill="white">
<path d="M2.04406 2C1.45336 2 0.963867 2.49135 0.963867 3.08205V15.7545C0.963867 16.3451 1.45336 16.8364 2.04406 16.8364H11.0312C11.6219 16.8364 12.1114 16.3451 12.1114 15.7545V12.1683H11.1897V15.7545C11.1897 15.8503 11.1272 15.9147 11.0312 15.9147H2.04407C1.94809 15.9147 1.88575 15.8503 1.88575 15.7545V3.08205C1.88575 2.98622 1.94809 2.92188 2.04407 2.92188H11.0312C11.1272 2.92188 11.1897 2.98638 11.1897 3.08205V7.56298H12.1114V3.08205C12.1114 2.49135 11.6219 2 11.0312 2H2.04406ZM14.3728 6.83015L13.721 7.4818L15.6996 9.4604H8.51623V10.3821H15.6996L13.721 12.3607L14.3728 13.0124L17.4639 9.92133L14.3728 6.83015Z"/>
</mask>
<path d="M2.04406 2C1.45336 2 0.963867 2.49135 0.963867 3.08205V15.7545C0.963867 16.3451 1.45336 16.8364 2.04406 16.8364H11.0312C11.6219 16.8364 12.1114 16.3451 12.1114 15.7545V12.1683H11.1897V15.7545C11.1897 15.8503 11.1272 15.9147 11.0312 15.9147H2.04407C1.94809 15.9147 1.88575 15.8503 1.88575 15.7545V3.08205C1.88575 2.98622 1.94809 2.92188 2.04407 2.92188H11.0312C11.1272 2.92188 11.1897 2.98638 11.1897 3.08205V7.56298H12.1114V3.08205C12.1114 2.49135 11.6219 2 11.0312 2H2.04406ZM14.3728 6.83015L13.721 7.4818L15.6996 9.4604H8.51623V10.3821H15.6996L13.721 12.3607L14.3728 13.0124L17.4639 9.92133L14.3728 6.83015Z" fill="black"/>
<path d="M12.1114 12.1683H13.1114V11.1683H12.1114V12.1683ZM11.1897 12.1683V11.1683H10.1897V12.1683H11.1897ZM11.1897 7.56298H10.1897V8.56298H11.1897V7.56298ZM12.1114 7.56298V8.56298H13.1114V7.56298H12.1114ZM14.3728 6.83015L15.08 6.12306L14.3729 5.416L13.6658 6.12295L14.3728 6.83015ZM13.721 7.4818L13.014 6.77461L12.3067 7.48172L13.0139 8.18891L13.721 7.4818ZM15.6996 9.4604V10.4604H18.1138L16.4067 8.75329L15.6996 9.4604ZM8.51623 9.4604V8.4604H7.51623V9.4604H8.51623ZM8.51623 10.3821H7.51623V11.3821H8.51623V10.3821ZM15.6996 10.3821L16.4067 11.0892L18.1138 9.3821H15.6996V10.3821ZM13.721 12.3607L13.0139 11.6536L12.3067 12.3608L13.014 13.0679L13.721 12.3607ZM14.3728 13.0124L13.6658 13.7195L14.3729 14.4265L15.08 13.7195L14.3728 13.0124ZM17.4639 9.92133L18.171 10.6284L18.8781 9.92135L18.171 9.21424L17.4639 9.92133ZM2.04406 1C0.898849 1 -0.0361328 1.94129 -0.0361328 3.08205H1.96387C1.96387 3.06763 1.96951 3.04672 1.99039 3.02578C2.01117 3.00495 2.03109 3 2.04406 3V1ZM-0.0361328 3.08205V15.7545H1.96387V3.08205H-0.0361328ZM-0.0361328 15.7545C-0.0361328 16.8952 0.898944 17.8364 2.04406 17.8364V15.8364C2.03109 15.8364 2.01115 15.8315 1.99036 15.8106C1.96945 15.7897 1.96387 15.7688 1.96387 15.7545H-0.0361328ZM2.04406 17.8364H11.0312V15.8364H2.04406V17.8364ZM11.0312 17.8364C12.1763 17.8364 13.1114 16.8952 13.1114 15.7545H11.1114C11.1114 15.7688 11.1058 15.7897 11.0849 15.8106C11.0641 15.8315 11.0442 15.8364 11.0312 15.8364V17.8364ZM13.1114 15.7545V12.1683H11.1114V15.7545H13.1114ZM12.1114 11.1683H11.1897V13.1683H12.1114V11.1683ZM10.1897 12.1683V15.7545H12.1897V12.1683H10.1897ZM10.1897 15.7545C10.1897 15.5817 10.2499 15.3559 10.4337 15.1691C10.6193 14.9805 10.8495 14.9147 11.0312 14.9147V16.9147C11.3089 16.9147 11.6183 16.8167 11.8592 16.572C12.0982 16.3291 12.1897 16.0231 12.1897 15.7545H10.1897ZM11.0312 14.9147H2.04407V16.9147H11.0312V14.9147ZM2.04407 14.9147C2.22589 14.9147 2.45638 14.9806 2.64213 15.1696C2.82594 15.3566 2.88575 15.5824 2.88575 15.7545H0.885751C0.885751 16.0225 0.97673 16.3283 1.21571 16.5715C1.45663 16.8166 1.76628 16.9147 2.04407 16.9147V14.9147ZM2.88575 15.7545V3.08205H0.885751V15.7545H2.88575ZM2.88575 3.08205C2.88575 3.25416 2.82594 3.47995 2.64213 3.66698C2.45638 3.85598 2.22589 3.92188 2.04407 3.92188V1.92188C1.76628 1.92188 1.45662 2.01995 1.21571 2.26508C0.976729 2.50824 0.885751 2.81412 0.885751 3.08205H2.88575ZM2.04407 3.92188H11.0312V1.92188H2.04407V3.92188ZM11.0312 3.92188C10.8488 3.92188 10.6187 3.85565 10.4335 3.66729C10.2501 3.48083 10.1897 3.25527 10.1897 3.08205H12.1897C12.1897 2.81316 12.098 2.50751 11.8594 2.26488C11.6189 2.02035 11.3096 1.92188 11.0312 1.92188V3.92188ZM10.1897 3.08205V7.56298H12.1897V3.08205H10.1897ZM11.1897 8.56298H12.1114V6.56298H11.1897V8.56298ZM13.1114 7.56298V3.08205H11.1114V7.56298H13.1114ZM13.1114 3.08205C13.1114 1.94129 12.1764 1 11.0312 1V3C11.0442 3 11.0641 3.00495 11.0849 3.02578C11.1058 3.04672 11.1114 3.06763 11.1114 3.08205H13.1114ZM11.0312 1H2.04406V3H11.0312V1ZM13.6658 6.12295L13.014 6.77461L14.428 8.18899L15.0799 7.53734L13.6658 6.12295ZM13.0139 8.18891L14.9925 10.1675L16.4067 8.75329L14.4281 6.77469L13.0139 8.18891ZM15.6996 8.4604H8.51623V10.4604H15.6996V8.4604ZM7.51623 9.4604V10.3821H9.51623V9.4604H7.51623ZM8.51623 11.3821H15.6996V9.3821H8.51623V11.3821ZM14.9925 9.67499L13.0139 11.6536L14.4281 13.0678L16.4067 11.0892L14.9925 9.67499ZM13.014 13.0679L13.6658 13.7195L15.0799 12.3052L14.428 11.6535L13.014 13.0679ZM15.08 13.7195L18.171 10.6284L16.7568 9.21422L13.6657 12.3052L15.08 13.7195ZM18.171 9.21424L15.08 6.12306L13.6657 7.53723L16.7567 10.6284L18.171 9.21424Z" fill="#101010" mask="url(#path-1-inside-1_2689_13143)"/>
</svg>
