<svg width="22" height="23" viewBox="0 0 22 23" fill="none" xmlns="http://www.w3.org/2000/svg">
<path d="M11.2614 2.3335C16.3207 2.3335 20.4281 6.44082 20.4281 11.5002C20.4281 16.5595 16.3207 20.6668 11.2614 20.6668C6.20205 20.6668 2.09473 16.5595 2.09473 11.5002C2.09473 6.44082 6.20205 2.3335 11.2614 2.3335ZM5.79642 17.8625C7.03752 16.0856 9.0758 15.0107 11.2614 15.0107C13.4471 15.0107 15.4853 16.0856 16.7264 17.8625C18.5148 16.3247 19.6477 14.0455 19.6477 11.5002C19.6477 6.86641 15.8953 3.11397 11.2615 3.11397C6.62777 3.11397 2.87533 6.86641 2.87533 11.5002C2.87533 14.0455 4.00824 16.3248 5.79668 17.8625H5.79642ZM16.1122 18.3434C15.0162 16.7471 13.2144 15.7911 11.2614 15.7911C9.30843 15.7911 7.50666 16.7471 6.41059 18.3434C7.77983 19.3155 9.45356 19.8864 11.2614 19.8864C13.0692 19.8864 14.7428 19.3155 16.1122 18.3434Z" fill="black"/>
<path d="M11.2613 6.23389C13.3662 6.23389 15.0772 7.94498 15.0772 10.0498C15.0772 12.1547 13.3661 13.8658 11.2613 13.8658C9.1564 13.8658 7.44531 12.1547 7.44531 10.0498C7.44531 7.94498 9.1564 6.23389 11.2613 6.23389ZM11.2613 7.01436C9.58242 7.01436 8.22569 8.37119 8.22569 10.0499C8.22569 11.7288 9.58252 13.0855 11.2613 13.0855C12.9401 13.0855 14.2968 11.7287 14.2968 10.0499C14.2968 8.3711 12.94 7.01436 11.2613 7.01436Z" fill="black"/>
</svg>
